<?xml version="1.0" encoding="UTF-8"?>
<svg id="Layer_1" xmlns="http://www.w3.org/2000/svg" version="1.1" xmlns:xlink="http://www.w3.org/1999/xlink" viewBox="0 0 860 483.75">
  <!-- Generator: Adobe Illustrator 29.5.0, SVG Export Plug-In . SVG Version: 2.1.0 Build 137)  -->
  <defs>
    <style>
      .st0, .st1 {
        fill: #fff;
      }

      .st2, .st3, .st4, .st1, .st5, .st6, .st7, .st8, .st9, .st10 {
        stroke-miterlimit: 10;
      }

      .st2, .st4, .st5, .st6, .st7, .st8, .st9, .st10 {
        fill: none;
      }

      .st2, .st6, .st9, .st10 {
        stroke: blue;
      }

      .st11 {
        fill: url(#radial-gradient);
      }

      .st3 {
        fill: #ccc;
      }

      .st3, .st4, .st1, .st5, .st7 {
        stroke: #000;
      }

      .st4, .st6, .st8 {
        stroke-dasharray: 8;
        stroke-width: 3px;
      }

      .st1, .st5 {
        stroke-width: 2px;
      }

      .st7 {
        stroke-width: 4px;
      }

      .st8 {
        stroke: red;
      }

      .st9 {
        stroke-width: .75px;
      }

      .st10 {
        stroke-width: .5px;
      }
    </style>
    <radialGradient id="radial-gradient" cx="192.55" cy="277.75" fx="192.55" fy="277.75" r="14.17" gradientUnits="userSpaceOnUse">
      <stop offset=".47" stop-color="#fff"/>
      <stop offset="1" stop-color="blue"/>
    </radialGradient>
  </defs>
  <g>
    <rect class="st3" x="390.59" y="89.84" width="20.36" height="20.36" transform="translate(139.04 419.57) rotate(-64.69)"/>
    <polygon class="st3" points="413.51 96.73 402.31 100.74 406.32 111.94 413.51 96.73"/>
  </g>
  <g>
    <rect class="st3" x="390.54" y="377.95" width="20.36" height="20.36" transform="translate(12.59 788.85) rotate(-90)"/>
    <polygon class="st3" points="410.83 379.72 402.42 388.13 410.83 396.54 410.83 379.72"/>
  </g>
  <g>
    <path class="st1" d="M512.35,327.67c0,8.62,4.84,10.8,10.8,10.8s9.56-3.35,10.8-12-4.84-15.6-10.8-15.6c-4.1,0-7.66,3.3-9.49,8.16-.42,1.11-3.48,6.19-3.71,7.44s2.4-.15,2.4,1.2Z"/>
    <path class="st5" d="M524.68,320.35c.13.53,2.17,2.3.42,4.9"/>
  </g>
  <g>
    <g>
      <path class="st0" d="M669.15,255.47c-6.78,0-9.8-3.02-9.8-9.8,0-.39-.14-1.65-1.96-1.65-.08,0-.15,0-.23,0,.43-.99,1.38-2.73,2.01-3.88.77-1.41,1.25-2.3,1.43-2.77,1.75-4.63,5.02-7.51,8.56-7.51,2.32,0,4.75,1.26,6.66,3.46,2.58,2.97,3.73,6.98,3.15,11-1.12,7.81-4.05,11.14-9.81,11.14Z"/>
      <path d="M669.15,230.87c2.03,0,4.18,1.14,5.9,3.12,2.39,2.75,3.45,6.47,2.92,10.2-1.29,9.04-5,10.28-8.82,10.28-6.25,0-8.8-2.55-8.8-8.8,0-.77-.39-1.97-1.69-2.44.45-.88,1.01-1.9,1.39-2.6.81-1.49,1.28-2.36,1.48-2.9,1.59-4.23,4.51-6.86,7.62-6.86M669.15,228.87c-4.1,0-7.66,3.3-9.49,8.16-.42,1.11-3.48,6.19-3.71,7.44-.09.49.27.57.73.57.22,0,.47-.02.71-.02.51,0,.96.09.96.65,0,8.62,4.84,10.8,10.8,10.8s9.56-3.35,10.8-12c1.2-8.4-4.84-15.6-10.8-15.6h0Z"/>
    </g>
    <path class="st5" d="M671.11,243.25c1.74-2.6-.29-4.37-.42-4.9"/>
  </g>
  <line class="st4" x1="410.96" y1="104.17" x2="657.96" y2="238.17"/>
  <line class="st6" x1="385.95" y1="304.71" x2="506.96" y2="323.17"/>
  <polyline class="st8" points="365.47 263.45 192.96 277.17 385.95 304.71"/>
  <line class="st6" x1="655.96" y1="242.17" x2="365.47" y2="263.45"/>
  <line class="st4" x1="413.96" y1="381.17" x2="511.96" y2="330.17"/>
  <path class="st6" d="M387.58,304.17c-1.06,6.84-1.61,13.86-1.61,21,0,18.11,3.54,35.39,9.96,51.19"/>
  <path class="st6" d="M366.6,263.96c-.42-6.54-.63-13.14-.63-19.79,0-47.21,10.76-91.91,29.97-131.77"/>
  <g>
    <circle class="st11" cx="192.55" cy="277.75" r="14.17"/>
    <g>
      <circle class="st2" cx="192.55" cy="277.75" r="19.32"/>
      <circle class="st9" cx="192.55" cy="277.75" r="24.53"/>
      <circle class="st10" cx="192.55" cy="277.75" r="27"/>
    </g>
  </g>
  <line class="st4" x1="413.96" y1="388.17" x2="545.96" y2="388.17"/>
  <line class="st4" x1="413.96" y1="104.58" x2="692.46" y2="104.58"/>
  <g>
    <line class="st7" x1="684.96" y1="226.82" x2="684.96" y2="104.58"/>
    <polygon points="694.94 223.9 684.96 241.17 674.99 223.9 694.94 223.9"/>
  </g>
  <g>
    <line class="st7" x1="542.96" y1="388.17" x2="542.96" y2="339.02"/>
    <polygon points="552.94 341.94 542.96 324.67 532.99 341.94 552.94 341.94"/>
  </g>
</svg>