<?xml version="1.0" encoding="UTF-8"?>
<svg id="Layer_1" xmlns="http://www.w3.org/2000/svg" version="1.1" xmlns:xlink="http://www.w3.org/1999/xlink" viewBox="0 0 1920 1080">
  <!-- Generator: Adobe Illustrator 29.5.0, SVG Export Plug-In . SVG Version: 2.1.0 Build 137)  -->
  <defs>
    <style>
      .st0, .st1 {
        fill: #fff;
      }

      .st2, .st3, .st4, .st1, .st5, .st6, .st7, .st8, .st9, .st10 {
        stroke-miterlimit: 10;
      }

      .st2, .st4, .st5, .st6, .st7, .st8, .st9, .st10 {
        fill: none;
      }

      .st2, .st6, .st9, .st10 {
        stroke: blue;
      }

      .st11 {
        fill: url(#radial-gradient);
      }

      .st3 {
        fill: #ccc;
      }

      .st3, .st4, .st1, .st5, .st7 {
        stroke: #000;
      }

      .st4, .st6, .st8 {
        stroke-dasharray: 8;
        stroke-width: 3px;
      }

      .st1, .st5 {
        stroke-width: 2px;
      }

      .st7 {
        stroke-width: 4px;
      }

      .st8 {
        stroke: red;
      }

      .st9 {
        stroke-width: .75px;
      }

      .st10 {
        stroke-width: .5px;
      }
    </style>
    <radialGradient id="radial-gradient" cx="722.55" cy="575.88" fx="722.55" fy="575.88" r="14.17" gradientUnits="userSpaceOnUse">
      <stop offset=".47" stop-color="#fff"/>
      <stop offset="1" stop-color="blue"/>
    </radialGradient>
  </defs>
  <g>
    <rect class="st3" x="920.59" y="387.96" width="20.36" height="20.36" transform="translate(172.97 1069.39) rotate(-64.69)"/>
    <polygon class="st3" points="943.51 394.86 932.31 398.87 936.32 410.07 943.51 394.86"/>
  </g>
  <g>
    <rect class="st3" x="920.54" y="676.08" width="20.36" height="20.36" transform="translate(244.46 1616.98) rotate(-90)"/>
    <polygon class="st3" points="940.83 677.85 932.42 686.26 940.83 694.67 940.83 677.85"/>
  </g>
  <g>
    <path class="st1" d="M1042.35,625.79c0,8.62,4.84,10.8,10.8,10.8s9.56-3.35,10.8-12-4.84-15.6-10.8-15.6c-4.1,0-7.66,3.3-9.49,8.16-.42,1.11-3.48,6.19-3.71,7.44s2.4-.15,2.4,1.2Z"/>
    <path class="st5" d="M1054.68,618.48c.13.53,2.17,2.3.42,4.9"/>
  </g>
  <g>
    <g>
      <path class="st0" d="M1199.15,553.59c-6.78,0-9.8-3.02-9.8-9.8,0-.39-.14-1.65-1.96-1.65-.08,0-.15,0-.23,0,.43-.99,1.38-2.73,2.01-3.88.77-1.41,1.25-2.3,1.43-2.77,1.75-4.63,5.02-7.51,8.56-7.51,2.32,0,4.75,1.26,6.66,3.46,2.58,2.97,3.73,6.98,3.15,11-1.12,7.81-4.05,11.14-9.81,11.14Z"/>
      <path d="M1199.15,528.99c2.03,0,4.18,1.14,5.9,3.12,2.39,2.75,3.45,6.47,2.92,10.2-1.29,9.04-5,10.28-8.82,10.28-6.25,0-8.8-2.55-8.8-8.8,0-.77-.39-1.97-1.69-2.44.45-.88,1.01-1.9,1.39-2.6.81-1.49,1.28-2.36,1.48-2.9,1.59-4.23,4.51-6.86,7.62-6.86M1199.15,526.99c-4.1,0-7.66,3.3-9.49,8.16-.42,1.11-3.48,6.19-3.71,7.44-.09.49.27.57.73.57.22,0,.47-.02.71-.02.51,0,.96.09.96.65,0,8.62,4.84,10.8,10.8,10.8s9.56-3.35,10.8-12c1.2-8.4-4.84-15.6-10.8-15.6h0Z"/>
    </g>
    <path class="st5" d="M1201.11,541.38c1.74-2.6-.29-4.37-.42-4.9"/>
  </g>
  <line class="st4" x1="940.96" y1="402.29" x2="1187.96" y2="536.29"/>
  <line class="st6" x1="915.95" y1="602.83" x2="1036.96" y2="621.29"/>
  <polyline class="st8" points="895.47 561.57 722.96 575.29 915.95 602.83"/>
  <line class="st6" x1="1185.96" y1="540.29" x2="895.47" y2="561.57"/>
  <line class="st4" x1="943.96" y1="679.29" x2="1041.96" y2="628.29"/>
  <path class="st6" d="M917.58,602.29c-1.06,6.84-1.61,13.86-1.61,21,0,18.11,3.54,35.39,9.96,51.19"/>
  <path class="st6" d="M896.6,562.08c-.42-6.54-.63-13.14-.63-19.79,0-47.21,10.76-91.91,29.97-131.77"/>
  <g>
    <circle class="st11" cx="722.55" cy="575.88" r="14.17"/>
    <g>
      <circle class="st2" cx="722.55" cy="575.88" r="19.32"/>
      <circle class="st9" cx="722.55" cy="575.88" r="24.53"/>
      <circle class="st10" cx="722.55" cy="575.88" r="27"/>
    </g>
  </g>
  <line class="st4" x1="943.96" y1="686.29" x2="1075.96" y2="686.29"/>
  <line class="st4" x1="943.96" y1="402.71" x2="1222.46" y2="402.71"/>
  <g>
    <line class="st7" x1="1214.96" y1="524.94" x2="1214.96" y2="402.71"/>
    <polygon points="1224.94 522.02 1214.96 539.29 1204.99 522.02 1224.94 522.02"/>
  </g>
  <g>
    <line class="st7" x1="1072.96" y1="686.29" x2="1072.96" y2="637.15"/>
    <polygon points="1082.94 640.06 1072.96 622.79 1062.99 640.06 1082.94 640.06"/>
  </g>
</svg>