<?xml version="1.0" encoding="UTF-8"?>
<svg id="Layer_1" xmlns="http://www.w3.org/2000/svg" version="1.1" xmlns:xlink="http://www.w3.org/1999/xlink" viewBox="0 0 619 950">
  <!-- Generator: Adobe Illustrator 29.5.0, SVG Export Plug-In . SVG Version: 2.1.0 Build 137)  -->
  <defs>
    <style>
      .st0 {
        stroke-dasharray: 8.21 8.21;
      }

      .st0, .st1, .st2, .st3, .st4, .st5, .st6, .st7, .st8, .st9, .st10, .st11, .st12, .st13, .st14, .st15, .st16, .st17, .st18, .st19, .st20, .st21, .st22, .st23, .st24 {
        stroke-miterlimit: 10;
      }

      .st0, .st1, .st2, .st3, .st4, .st5, .st6, .st7, .st9, .st11, .st12, .st13, .st14, .st15, .st16, .st17, .st18, .st19, .st20, .st21, .st22, .st23, .st24 {
        fill: none;
      }

      .st0, .st1, .st2, .st3, .st6, .st7, .st9, .st12, .st13, .st14, .st15, .st17, .st19, .st20, .st21, .st23, .st24 {
        stroke-width: 3px;
      }

      .st0, .st1, .st2, .st15, .st17, .st20, .st23 {
        stroke: red;
      }

      .st1 {
        stroke-dasharray: 7.93 7.93;
      }

      .st2 {
        stroke-dasharray: 8.27 8.27;
      }

      .st3 {
        stroke-dasharray: 8.26 8.26;
      }

      .st3, .st4, .st6, .st7, .st12, .st14, .st18, .st19, .st22, .st24 {
        stroke: blue;
      }

      .st25, .st10 {
        fill: #fff;
      }

      .st5 {
        stroke: #666;
      }

      .st5, .st10, .st11 {
        stroke-width: 2px;
      }

      .st6 {
        stroke-dasharray: 7.7 7.7;
      }

      .st26 {
        fill: url(#radial-gradient);
      }

      .st27 {
        fill: url(#radial-gradient1);
      }

      .st7 {
        stroke-dasharray: 7.75 7.75;
      }

      .st8 {
        fill: #ccc;
      }

      .st8, .st9, .st10, .st11, .st13, .st16, .st21 {
        stroke: #000;
      }

      .st9, .st14, .st17 {
        stroke-dasharray: 8;
      }

      .st12 {
        stroke-dasharray: 8.33 8.33;
      }

      .st13 {
        stroke-dasharray: 7.9 7.9;
      }

      .st15 {
        stroke-dasharray: 8.2 8.2;
      }

      .st16 {
        stroke-width: 4px;
      }

      .st18 {
        stroke-width: .75px;
      }

      .st20 {
        stroke-dasharray: 7.82 7.82;
      }

      .st22 {
        stroke-width: .5px;
      }

      .st24 {
        stroke-dasharray: 8.23 8.23;
      }
    </style>
    <radialGradient id="radial-gradient" cx="360.29" cy="48.29" fx="360.29" fy="48.29" r="14.17" gradientUnits="userSpaceOnUse">
      <stop offset=".47" stop-color="#fff"/>
      <stop offset="1" stop-color="blue"/>
    </radialGradient>
    <radialGradient id="radial-gradient1" cx="77.09" cy="796.09" fx="77.09" fy="796.09" r="14.17" xlink:href="#radial-gradient"/>
  </defs>
  <g>
    <rect class="st8" x="138.13" y="232.17" width="20.36" height="20.36" transform="translate(142.41 -41.72) rotate(30.28)"/>
    <polygon class="st8" points="150.48 255.32 147.45 243.81 135.95 246.84 150.48 255.32"/>
  </g>
  <g>
    <rect class="st8" x="218.08" y="232.29" width="20.36" height="20.36"/>
    <polygon class="st8" points="236.67 252.57 228.26 244.16 219.85 252.57 236.67 252.57"/>
  </g>
  <g>
    <rect class="st8" x="298.08" y="232.29" width="20.36" height="20.36"/>
    <polygon class="st8" points="316.67 252.57 308.26 244.16 299.85 252.57 316.67 252.57"/>
  </g>
  <g>
    <rect class="st8" x="378.08" y="232.29" width="20.36" height="20.36"/>
    <polygon class="st8" points="396.67 252.57 388.26 244.16 379.85 252.57 396.67 252.57"/>
  </g>
  <g>
    <rect class="st8" x="458.1" y="232.42" width="20.36" height="20.36" transform="translate(-57.38 285.34) rotate(-32.04)"/>
    <polygon class="st8" points="480.77 246.71 469.18 244.04 466.51 255.63 480.77 246.71"/>
  </g>
  <g>
    <g>
      <path class="st25" d="M41.1,439.45c-2.29,0-4.55-.61-6.54-1.77-6.19-3.61-8.29-11.59-4.67-17.78,2.34-4.01,6.69-6.51,11.33-6.51,1.35,0,2.68.21,3.95.62l4.35-3.85c.19-.17.42-.25.66-.25.17,0,.35.04.5.14.37.22.56.65.47,1.07l-1.22,5.69c4.43,4.07,5.47,10.92,2.39,16.2-2.32,3.98-6.63,6.45-11.24,6.45Z"/>
      <path d="M50.19,410.9h0M50.19,410.9l-1.34,6.26c4.42,3.68,5.63,10.2,2.63,15.33-2.23,3.82-6.25,5.95-10.37,5.95-2.05,0-4.14-.53-6.04-1.64-5.72-3.34-7.65-10.69-4.31-16.41,2.24-3.84,6.31-6.01,10.47-6.01,1.4,0,2.82.25,4.18.76l4.79-4.24M50.19,408.9s-.03,0-.05,0c-.49.01-.94.2-1.28.51l-3.93,3.48c-1.2-.34-2.44-.51-3.71-.51-5,0-9.67,2.68-12.2,7-1.89,3.23-2.4,7-1.45,10.62.95,3.62,3.25,6.65,6.48,8.53,2.14,1.25,4.58,1.91,7.05,1.91,4.96,0,9.6-2.66,12.1-6.94,3.22-5.51,2.25-12.62-2.16-17.04l1.08-5.04c.04-.17.07-.34.07-.52,0-1.1-.89-2-1.99-2,0,0,0,0-.01,0h0ZM50.19,412.9h0,0Z"/>
    </g>
    <path class="st11" d="M30.2,417.7s-.5,3.43-3.01,3.68"/>
    <path class="st11" d="M54.1,431.65s-2.74,2.12-1.72,4.43"/>
  </g>
  <g>
    <line class="st21" x1="140.94" y1="255.45" x2="138.92" y2="258.91"/>
    <line class="st13" x1="134.94" y1="265.74" x2="57.22" y2="398.85"/>
    <line class="st21" x1="55.23" y1="402.27" x2="53.21" y2="405.72"/>
  </g>
  <g>
    <g>
      <path class="st25" d="M228.5,469c-7.17,0-13-5.83-13-13,0-6.11,4.36-11.5,10.23-12.79l1.82-5.53c.14-.41.52-.69.95-.69s.81.28.95.69l1.82,5.53c5.88,1.28,10.23,6.67,10.23,12.79,0,7.17-5.83,13-13,13Z"/>
      <path d="M228.5,438l2,6.08c5.68.95,10,5.97,10,11.92,0,6.63-5.37,12-12,12s-12-5.37-12-12c0-5.95,4.32-10.96,10-11.92l2-6.08M228.5,436c-.86,0-1.63.55-1.9,1.38l-1.64,5c-6.04,1.6-10.46,7.25-10.46,13.63,0,7.72,6.28,14,14,14s14-6.28,14-14c0-6.38-4.42-12.03-10.46-13.63l-1.64-5c-.27-.82-1.04-1.38-1.9-1.38h0Z"/>
    </g>
    <path class="st11" d="M214.66,453.95s1.3,3.22-.75,4.7"/>
    <path class="st11" d="M242.34,453.95s-1.3,3.22.75,4.7"/>
  </g>
  <g>
    <line class="st21" x1="228.5" y1="258" x2="228.5" y2="262"/>
    <line class="st13" x1="228.5" y1="269.9" x2="228.5" y2="424.05"/>
    <line class="st21" x1="228.5" y1="428" x2="228.5" y2="432"/>
  </g>
  <g>
    <g>
      <path class="st25" d="M308.5,469.5c-7.17,0-13-5.83-13-13,0-6.11,4.36-11.5,10.23-12.79l1.82-5.53c.14-.41.52-.69.95-.69s.81.28.95.69l1.82,5.53c5.88,1.28,10.23,6.67,10.23,12.79,0,7.17-5.83,13-13,13Z"/>
      <path d="M308.5,438.5l2,6.08c5.68.95,10,5.97,10,11.92,0,6.63-5.37,12-12,12s-12-5.37-12-12c0-5.95,4.32-10.96,10-11.92l2-6.08M308.5,436.5c-.86,0-1.63.55-1.9,1.38l-1.64,5c-6.04,1.6-10.46,7.25-10.46,13.63,0,7.72,6.28,14,14,14s14-6.28,14-14c0-6.38-4.42-12.03-10.46-13.63l-1.64-5c-.27-.82-1.04-1.38-1.9-1.38h0Z"/>
    </g>
    <path class="st11" d="M294.66,454.45s1.3,3.22-.75,4.7"/>
    <path class="st11" d="M322.34,454.45s-1.3,3.22.75,4.7"/>
  </g>
  <g>
    <line class="st21" x1="308.5" y1="258.5" x2="308.5" y2="262.5"/>
    <line class="st13" x1="308.5" y1="270.4" x2="308.5" y2="424.55"/>
    <line class="st21" x1="308.5" y1="428.5" x2="308.5" y2="432.5"/>
  </g>
  <g>
    <g>
      <path class="st25" d="M388.5,470c-7.17,0-13-5.83-13-13,0-6.11,4.36-11.5,10.23-12.79l1.82-5.53c.14-.41.52-.69.95-.69s.81.28.95.69l1.82,5.53c5.88,1.28,10.23,6.67,10.23,12.79,0,7.17-5.83,13-13,13Z"/>
      <path d="M388.5,439l2,6.08c5.68.95,10,5.97,10,11.92,0,6.63-5.37,12-12,12s-12-5.37-12-12c0-5.95,4.32-10.96,10-11.92l2-6.08M388.5,437c-.86,0-1.63.55-1.9,1.38l-1.64,5c-6.04,1.6-10.46,7.25-10.46,13.63,0,7.72,6.28,14,14,14s14-6.28,14-14c0-6.38-4.42-12.03-10.46-13.63l-1.64-5c-.27-.82-1.04-1.38-1.9-1.38h0Z"/>
    </g>
    <path class="st11" d="M374.66,454.95s1.3,3.22-.75,4.7"/>
    <path class="st11" d="M402.34,454.95s-1.3,3.22.75,4.7"/>
  </g>
  <g>
    <line class="st21" x1="388.5" y1="259" x2="388.5" y2="263"/>
    <line class="st13" x1="388.5" y1="270.9" x2="388.5" y2="425.05"/>
    <line class="st21" x1="388.5" y1="429" x2="388.5" y2="433"/>
  </g>
  <g>
    <g>
      <path class="st25" d="M582.56,437.76c-4.51,0-8.64-2.28-11.03-6.11-3.24-5.18-2.41-12.06,1.89-16.27l-1.39-5.65c-.1-.42.07-.86.44-1.09.16-.1.35-.15.53-.15.23,0,.46.08.64.23l4.47,3.72c1.39-.5,2.84-.75,4.33-.75,4.55,0,8.71,2.3,11.13,6.16,1.84,2.94,2.43,6.43,1.65,9.81-.78,3.38-2.83,6.26-5.77,8.1-2.07,1.3-4.45,1.98-6.88,1.98Z"/>
      <path d="M573,409.5l4.92,4.1c1.46-.6,2.99-.9,4.52-.9,4.03,0,7.99,2.04,10.28,5.69,3.52,5.62,1.81,13.02-3.81,16.54-1.98,1.24-4.18,1.83-6.35,1.83-4,0-7.91-2-10.18-5.64-3.15-5.04-2.15-11.59,2.16-15.41l-1.53-6.22M573,407.5c-.37,0-.73.1-1.06.3-.73.46-1.09,1.33-.88,2.17l1.26,5.11c-4.27,4.56-5.02,11.69-1.64,17.1,2.58,4.12,7.02,6.58,11.88,6.58,2.62,0,5.18-.74,7.41-2.13,3.17-1.98,5.38-5.08,6.22-8.73.84-3.64.21-7.4-1.78-10.57-2.6-4.15-7.08-6.63-11.98-6.63-1.41,0-2.79.21-4.12.63l-4.04-3.36c-.37-.31-.82-.46-1.28-.46h0Z"/>
    </g>
    <path class="st11" d="M569.73,430.36s2.8,2.04,1.86,4.38"/>
    <path class="st11" d="M593.19,415.68s.61,3.41,3.12,3.59"/>
  </g>
  <g>
    <line class="st21" x1="477.52" y1="256.91" x2="479.64" y2="260.3"/>
    <line class="st13" x1="483.83" y1="267" x2="565.6" y2="397.67"/>
    <line class="st21" x1="567.7" y1="401.02" x2="569.82" y2="404.41"/>
  </g>
  <g>
    <line class="st23" x1="334.97" y1="243.51" x2="335.49" y2="239.55"/>
    <line class="st15" x1="336.56" y1="231.41" x2="359.45" y2="56.53"/>
    <line class="st23" x1="359.98" y1="52.47" x2="360.5" y2="48.5"/>
  </g>
  <g>
    <line class="st19" x1="309.5" y1="442.5" x2="310.01" y2="438.53"/>
    <line class="st6" x1="310.99" y1="430.89" x2="333.98" y2="251.3"/>
    <line class="st19" x1="334.46" y1="247.48" x2="334.97" y2="243.51"/>
  </g>
  <g>
    <line class="st23" x1="373.96" y1="244.95" x2="373.69" y2="240.96"/>
    <line class="st0" x1="373.13" y1="232.77" x2="361.05" y2="56.59"/>
    <line class="st23" x1="360.77" y1="52.49" x2="360.5" y2="48.5"/>
  </g>
  <g>
    <line class="st19" x1="387.5" y1="442.5" x2="387.23" y2="438.51"/>
    <line class="st3" x1="386.66" y1="430.27" x2="374.52" y2="253.07"/>
    <line class="st19" x1="374.24" y1="248.95" x2="373.96" y2="244.95"/>
  </g>
  <g>
    <line class="st23" x1="294" y1="252.64" x2="295.24" y2="248.84"/>
    <line class="st2" x1="297.8" y1="240.98" x2="357.98" y2="56.23"/>
    <line class="st23" x1="359.26" y1="52.3" x2="360.5" y2="48.5"/>
  </g>
  <g>
    <line class="st19" x1="231.5" y1="444.5" x2="232.74" y2="440.7"/>
    <line class="st7" x1="235.14" y1="433.33" x2="291.56" y2="260.13"/>
    <line class="st19" x1="292.76" y1="256.45" x2="294" y2="252.64"/>
  </g>
  <g>
    <line class="st23" x1="473.64" y1="239.61" x2="471.6" y2="236.17"/>
    <line class="st1" x1="467.56" y1="229.35" x2="364.56" y2="55.35"/>
    <line class="st23" x1="362.54" y1="51.94" x2="360.5" y2="48.5"/>
  </g>
  <g>
    <line class="st19" x1="582.5" y1="423.5" x2="580.46" y2="420.06"/>
    <line class="st24" x1="576.27" y1="412.98" x2="477.77" y2="246.59"/>
    <line class="st19" x1="475.68" y1="243.05" x2="473.64" y2="239.61"/>
  </g>
  <g>
    <line class="st23" x1="178.47" y1="263.31" x2="181.05" y2="260.26"/>
    <line class="st20" x1="186.11" y1="254.3" x2="355.39" y2="54.53"/>
    <line class="st23" x1="357.91" y1="51.55" x2="360.5" y2="48.5"/>
  </g>
  <g>
    <line class="st19" x1="49.5" y1="415.5" x2="52.09" y2="412.45"/>
    <line class="st12" x1="57.47" y1="406.1" x2="173.19" y2="269.54"/>
    <line class="st19" x1="175.88" y1="266.36" x2="178.47" y2="263.31"/>
  </g>
  <path class="st14" d="M178.21,263.31c-6.1-5.22-12.51-10.1-19.18-14.61"/>
  <path class="st14" d="M293.01,252.49c-17.33-5.53-35.63-8.89-54.57-9.76"/>
  <path class="st14" d="M334.88,244.25c-5.42-.7-10.9-1.19-16.44-1.47"/>
  <path class="st14" d="M378.62,244.73c-.66.03-1.32.06-1.98.1-.71.04-1.43.08-2.14.13"/>
  <g>
    <circle class="st26" cx="360.29" cy="48.29" r="14.17"/>
    <circle class="st4" cx="360.29" cy="48.29" r="19.32"/>
    <circle class="st18" cx="360.29" cy="48.29" r="24.53"/>
    <circle class="st22" cx="360.29" cy="48.29" r="27"/>
  </g>
  <g>
    <rect class="st8" x="275.13" y="608.17" width="20.36" height="20.36" transform="translate(-395.66 611.95) rotate(-64.69)"/>
    <polygon class="st8" points="298.04 615.06 286.84 619.07 290.85 630.27 298.04 615.06"/>
  </g>
  <g>
    <rect class="st8" x="275.08" y="896.29" width="20.36" height="20.36" transform="translate(-621.21 1191.72) rotate(-90)"/>
    <polygon class="st8" points="295.37 898.05 286.95 906.46 295.37 914.88 295.37 898.05"/>
  </g>
  <g>
    <path class="st10" d="M396.89,846c0,8.62,4.84,10.8,10.8,10.8s9.56-3.35,10.8-12c1.2-8.4-4.84-15.6-10.8-15.6-4.1,0-7.66,3.3-9.49,8.16-.42,1.11-3.48,6.19-3.71,7.44s2.4-.15,2.4,1.2Z"/>
    <path class="st11" d="M409.22,838.69c.13.53,2.17,2.3.42,4.9"/>
  </g>
  <g>
    <g>
      <path class="st25" d="M553.69,773.8c-6.78,0-9.8-3.02-9.8-9.8,0-.39-.14-1.65-1.96-1.65-.08,0-.15,0-.23,0,.43-.99,1.39-2.74,2.01-3.88.77-1.41,1.25-2.3,1.43-2.77,1.74-4.63,5.02-7.51,8.56-7.51,2.32,0,4.75,1.26,6.66,3.46,2.58,2.97,3.73,6.98,3.15,11-1.12,7.81-4.05,11.14-9.81,11.14Z"/>
      <path d="M553.69,749.2c2.03,0,4.18,1.14,5.9,3.12,2.39,2.75,3.45,6.47,2.92,10.2-1.29,9.04-5,10.28-8.82,10.28-6.25,0-8.8-2.55-8.8-8.8,0-.77-.39-1.97-1.69-2.44.45-.88,1.01-1.9,1.39-2.6.81-1.49,1.28-2.36,1.49-2.9,1.59-4.23,4.51-6.86,7.62-6.86M553.69,747.2c-4.1,0-7.66,3.3-9.49,8.16-.42,1.11-3.48,6.19-3.71,7.44-.09.49.27.57.73.57.22,0,.47-.02.71-.02.51,0,.96.09.96.65,0,8.62,4.84,10.8,10.8,10.8s9.56-3.35,10.8-12c1.2-8.4-4.84-15.6-10.8-15.6h0Z"/>
    </g>
    <path class="st11" d="M555.64,761.59c1.74-2.6-.29-4.37-.42-4.9"/>
  </g>
  <line class="st9" x1="295.5" y1="622.5" x2="542.5" y2="756.5"/>
  <line class="st14" x1="270.48" y1="823.04" x2="391.5" y2="841.5"/>
  <polyline class="st17" points="250.01 781.78 77.5 795.5 270.48 823.04"/>
  <line class="st14" x1="540.5" y1="760.5" x2="250.01" y2="781.78"/>
  <line class="st9" x1="298.5" y1="899.5" x2="396.5" y2="848.5"/>
  <path class="st14" d="M272.11,822.5c-1.06,6.84-1.61,13.86-1.61,21,0,18.11,3.54,35.39,9.96,51.19"/>
  <path class="st14" d="M251.13,782.29c-.42-6.54-.63-13.14-.63-19.79,0-47.21,10.76-91.91,29.97-131.77"/>
  <g>
    <circle class="st27" cx="77.09" cy="796.09" r="14.17"/>
    <g>
      <circle class="st4" cx="77.09" cy="796.09" r="19.32"/>
      <circle class="st18" cx="77.09" cy="796.09" r="24.53"/>
      <circle class="st22" cx="77.09" cy="796.09" r="27"/>
    </g>
  </g>
  <line class="st9" x1="298.5" y1="906.5" x2="430.5" y2="906.5"/>
  <line class="st9" x1="298.5" y1="622.92" x2="577" y2="622.92"/>
  <g>
    <line class="st16" x1="569.5" y1="745.15" x2="569.5" y2="622.92"/>
    <polygon points="579.47 742.23 569.5 759.5 559.53 742.23 579.47 742.23"/>
  </g>
  <g>
    <line class="st16" x1="427.5" y1="906.5" x2="427.5" y2="857.35"/>
    <polygon points="437.47 860.27 427.5 843 417.53 860.27 437.47 860.27"/>
  </g>
  <line class="st5" x1="57.5" y1="537.5" x2="556.5" y2="537.5"/>
  <line class="st5" x1="57.5" y1="541.5" x2="556.5" y2="541.5"/>
</svg>