<?xml version="1.0" encoding="UTF-8"?>
<svg id="Layer_1" xmlns="http://www.w3.org/2000/svg" version="1.1" xmlns:xlink="http://www.w3.org/1999/xlink" viewBox="0 0 1920 1080">
  <!-- Generator: Adobe Illustrator 29.5.0, SVG Export Plug-In . SVG Version: 2.1.0 Build 137)  -->
  <defs>
    <style>
      .st0 {
        stroke-dasharray: 8.21 8.21;
      }

      .st0, .st1, .st2, .st3, .st4, .st5, .st6, .st7, .st8, .st9, .st10, .st11, .st12, .st13, .st14, .st15, .st16, .st17, .st18, .st19 {
        stroke-miterlimit: 10;
      }

      .st0, .st1, .st2, .st3, .st4, .st5, .st6, .st8, .st9, .st10, .st11, .st12, .st13, .st14, .st15, .st16, .st17, .st18, .st19 {
        fill: none;
      }

      .st0, .st1, .st2, .st3, .st5, .st6, .st9, .st10, .st11, .st12, .st14, .st15, .st16, .st18, .st19 {
        stroke-width: 3px;
      }

      .st0, .st1, .st2, .st12, .st15, .st18 {
        stroke: red;
      }

      .st1 {
        stroke-dasharray: 7.93 7.93;
      }

      .st2 {
        stroke-dasharray: 8.27 8.27;
      }

      .st3 {
        stroke-dasharray: 8.26 8.26;
      }

      .st3, .st4, .st5, .st6, .st9, .st11, .st13, .st14, .st17, .st19 {
        stroke: blue;
      }

      .st20 {
        fill: #fff;
      }

      .st5 {
        stroke-dasharray: 7.7 7.7;
      }

      .st21 {
        fill: url(#radial-gradient);
      }

      .st6 {
        stroke-dasharray: 7.75 7.75;
      }

      .st7 {
        fill: #ccc;
      }

      .st7, .st8, .st10, .st16 {
        stroke: #000;
      }

      .st8 {
        stroke-width: 2px;
      }

      .st9 {
        stroke-dasharray: 8.33 8.33;
      }

      .st10 {
        stroke-dasharray: 7.9 7.9;
      }

      .st11 {
        stroke-dasharray: 8;
      }

      .st12 {
        stroke-dasharray: 8.2 8.2;
      }

      .st13 {
        stroke-width: .75px;
      }

      .st15 {
        stroke-dasharray: 7.82 7.82;
      }

      .st17 {
        stroke-width: .5px;
      }

      .st19 {
        stroke-dasharray: 8.23 8.23;
      }
    </style>
    <radialGradient id="radial-gradient" cx="1008.59" cy="342.7" fx="1008.59" fy="342.7" r="14.17" gradientUnits="userSpaceOnUse">
      <stop offset=".47" stop-color="#fff"/>
      <stop offset="1" stop-color="blue"/>
    </radialGradient>
  </defs>
  <g>
    <rect class="st7" x="786.43" y="526.57" width="20.36" height="20.36" transform="translate(379.26 -328.41) rotate(30.28)"/>
    <polygon class="st7" points="798.78 549.72 795.75 538.22 784.25 541.24 798.78 549.72"/>
  </g>
  <g>
    <rect class="st7" x="866.38" y="526.69" width="20.36" height="20.36"/>
    <polygon class="st7" points="884.97 546.98 876.56 538.57 868.15 546.98 884.97 546.98"/>
  </g>
  <g>
    <rect class="st7" x="946.38" y="526.69" width="20.36" height="20.36"/>
    <polygon class="st7" points="964.97 546.98 956.56 538.57 948.15 546.98 964.97 546.98"/>
  </g>
  <g>
    <rect class="st7" x="1026.38" y="526.69" width="20.36" height="20.36"/>
    <polygon class="st7" points="1044.97 546.98 1036.56 538.57 1028.15 546.98 1044.97 546.98"/>
  </g>
  <g>
    <rect class="st7" x="1106.4" y="526.83" width="20.36" height="20.36" transform="translate(-114.82 674.07) rotate(-32.04)"/>
    <polygon class="st7" points="1129.07 541.11 1117.48 538.44 1114.81 550.04 1129.07 541.11"/>
  </g>
  <g>
    <line class="st16" x1="789.24" y1="549.86" x2="787.22" y2="553.32"/>
    <line class="st10" x1="783.24" y1="560.14" x2="705.52" y2="693.26"/>
    <line class="st16" x1="703.53" y1="696.67" x2="701.51" y2="700.13"/>
  </g>
  <g>
    <line class="st16" x1="876.8" y1="552.41" x2="876.8" y2="556.41"/>
    <line class="st10" x1="876.8" y1="564.31" x2="876.8" y2="718.45"/>
    <line class="st16" x1="876.8" y1="722.41" x2="876.8" y2="726.41"/>
  </g>
  <g>
    <line class="st16" x1="956.8" y1="552.91" x2="956.8" y2="556.91"/>
    <line class="st10" x1="956.8" y1="564.81" x2="956.8" y2="718.95"/>
    <line class="st16" x1="956.8" y1="722.91" x2="956.8" y2="726.91"/>
  </g>
  <g>
    <line class="st16" x1="1036.8" y1="553.41" x2="1036.8" y2="557.41"/>
    <line class="st10" x1="1036.8" y1="565.31" x2="1036.8" y2="719.45"/>
    <line class="st16" x1="1036.8" y1="723.41" x2="1036.8" y2="727.41"/>
  </g>
  <g>
    <line class="st16" x1="1125.82" y1="551.32" x2="1127.94" y2="554.71"/>
    <line class="st10" x1="1132.13" y1="561.41" x2="1213.9" y2="692.08"/>
    <line class="st16" x1="1215.99" y1="695.43" x2="1218.12" y2="698.82"/>
  </g>
  <g>
    <line class="st18" x1="983.27" y1="537.92" x2="983.79" y2="533.96"/>
    <line class="st12" x1="984.86" y1="525.82" x2="1007.75" y2="350.94"/>
    <line class="st18" x1="1008.28" y1="346.87" x2="1008.8" y2="342.91"/>
  </g>
  <g>
    <line class="st14" x1="957.8" y1="736.91" x2="958.31" y2="732.94"/>
    <line class="st5" x1="959.29" y1="725.3" x2="982.27" y2="545.71"/>
    <line class="st14" x1="982.76" y1="541.89" x2="983.27" y2="537.92"/>
  </g>
  <g>
    <line class="st18" x1="1022.26" y1="539.36" x2="1021.99" y2="535.37"/>
    <line class="st0" x1="1021.43" y1="527.18" x2="1009.35" y2="350.99"/>
    <line class="st18" x1="1009.07" y1="346.9" x2="1008.8" y2="342.91"/>
  </g>
  <g>
    <line class="st14" x1="1035.8" y1="736.91" x2="1035.53" y2="732.92"/>
    <line class="st3" x1="1034.96" y1="724.67" x2="1022.82" y2="547.47"/>
    <line class="st14" x1="1022.54" y1="543.35" x2="1022.26" y2="539.36"/>
  </g>
  <g>
    <line class="st18" x1="942.3" y1="547.05" x2="943.54" y2="543.25"/>
    <line class="st2" x1="946.1" y1="535.39" x2="1006.28" y2="350.64"/>
    <line class="st18" x1="1007.56" y1="346.71" x2="1008.8" y2="342.91"/>
  </g>
  <g>
    <line class="st14" x1="879.8" y1="738.91" x2="881.04" y2="735.1"/>
    <line class="st6" x1="883.44" y1="727.73" x2="939.86" y2="554.54"/>
    <line class="st14" x1="941.06" y1="550.85" x2="942.3" y2="547.05"/>
  </g>
  <g>
    <line class="st18" x1="1121.94" y1="534.02" x2="1119.9" y2="530.58"/>
    <line class="st1" x1="1115.86" y1="523.75" x2="1012.86" y2="349.76"/>
    <line class="st18" x1="1010.84" y1="346.35" x2="1008.8" y2="342.91"/>
  </g>
  <g>
    <line class="st14" x1="1230.8" y1="717.91" x2="1228.76" y2="714.46"/>
    <line class="st19" x1="1224.57" y1="707.38" x2="1126.07" y2="541"/>
    <line class="st14" x1="1123.97" y1="537.46" x2="1121.94" y2="534.02"/>
  </g>
  <g>
    <line class="st18" x1="826.77" y1="557.72" x2="829.35" y2="554.67"/>
    <line class="st15" x1="834.4" y1="548.7" x2="1003.69" y2="348.94"/>
    <line class="st18" x1="1006.21" y1="345.96" x2="1008.8" y2="342.91"/>
  </g>
  <g>
    <line class="st14" x1="697.8" y1="709.91" x2="700.39" y2="706.86"/>
    <line class="st9" x1="705.77" y1="700.5" x2="821.49" y2="563.95"/>
    <line class="st14" x1="824.18" y1="560.77" x2="826.77" y2="557.72"/>
  </g>
  <path class="st11" d="M826.51,557.72c-6.1-5.22-12.51-10.1-19.18-14.61"/>
  <path class="st11" d="M941.31,546.9c-17.33-5.53-35.63-8.89-54.57-9.76"/>
  <path class="st11" d="M983.18,538.66c-5.42-.7-10.9-1.19-16.44-1.47"/>
  <path class="st11" d="M1026.92,539.13c-.66.03-1.32.06-1.98.1-.71.04-1.43.08-2.14.13"/>
  <g>
    <circle class="st21" cx="1008.59" cy="342.7" r="14.17"/>
    <circle class="st4" cx="1008.59" cy="342.7" r="19.32"/>
    <circle class="st13" cx="1008.59" cy="342.7" r="24.53"/>
    <circle class="st17" cx="1008.59" cy="342.7" r="27"/>
  </g>
  <g>
    <g>
      <path class="st20" d="M1230.86,732.17c-4.52,0-8.64-2.28-11.03-6.11-3.24-5.18-2.41-12.06,1.89-16.27l-1.39-5.65c-.1-.42.07-.86.44-1.09.16-.1.35-.15.53-.15.23,0,.46.08.64.23l4.47,3.72c1.39-.5,2.84-.75,4.33-.75,4.55,0,8.71,2.3,11.13,6.16,3.8,6.08,1.95,14.11-4.12,17.92-2.07,1.3-4.45,1.98-6.88,1.98Z"/>
      <path d="M1221.3,703.91l4.92,4.1c1.46-.6,2.99-.9,4.52-.9,4.03,0,7.99,2.04,10.28,5.69,3.52,5.62,1.81,13.02-3.81,16.54-1.98,1.24-4.18,1.83-6.35,1.83-4,0-7.91-2-10.18-5.64-3.15-5.04-2.15-11.59,2.16-15.41l-1.53-6.22M1221.3,701.91c-.37,0-.73.1-1.06.3-.73.46-1.09,1.33-.88,2.17l1.26,5.11c-4.27,4.56-5.02,11.69-1.64,17.1,2.58,4.12,7.02,6.58,11.88,6.58,2.62,0,5.18-.74,7.41-2.13,6.54-4.09,8.54-12.75,4.44-19.29-2.6-4.15-7.08-6.63-11.98-6.63-1.41,0-2.79.21-4.12.63l-4.04-3.36c-.37-.31-.82-.46-1.28-.46h0Z"/>
    </g>
    <path class="st8" d="M1218.03,724.77s2.8,2.04,1.86,4.38"/>
    <path class="st8" d="M1241.49,710.09s.61,3.41,3.12,3.59"/>
  </g>
  <g>
    <g>
      <path class="st20" d="M876.8,763.41c-7.17,0-13-5.83-13-13,0-6.11,4.36-11.5,10.23-12.79l1.82-5.53c.14-.41.52-.69.95-.69s.81.28.95.69l1.82,5.53c5.88,1.28,10.23,6.67,10.23,12.79,0,7.17-5.83,13-13,13Z"/>
      <path d="M876.8,732.41l2,6.08c5.68.95,10,5.97,10,11.92,0,6.63-5.37,12-12,12s-12-5.37-12-12c0-5.95,4.32-10.96,10-11.92l2-6.08M876.8,730.41c-.86,0-1.63.55-1.9,1.38l-1.64,5c-6.04,1.6-10.46,7.25-10.46,13.63,0,7.72,6.28,14,14,14s14-6.28,14-14c0-6.38-4.42-12.03-10.46-13.63l-1.64-5c-.27-.82-1.04-1.38-1.9-1.38h0Z"/>
    </g>
    <path class="st8" d="M862.96,748.35s1.3,3.22-.75,4.7"/>
    <path class="st8" d="M890.64,748.35s-1.3,3.22.75,4.7"/>
  </g>
  <g>
    <g>
      <path class="st20" d="M956.8,763.91c-7.17,0-13-5.83-13-13,0-6.11,4.36-11.5,10.23-12.79l1.82-5.53c.14-.41.52-.69.95-.69s.81.28.95.69l1.82,5.53c5.88,1.28,10.23,6.67,10.23,12.79,0,7.17-5.83,13-13,13Z"/>
      <path d="M956.8,732.91l2,6.08c5.68.95,10,5.97,10,11.92,0,6.63-5.37,12-12,12s-12-5.37-12-12c0-5.95,4.32-10.96,10-11.92l2-6.08M956.8,730.91c-.86,0-1.63.55-1.9,1.38l-1.64,5c-6.04,1.6-10.46,7.25-10.46,13.63,0,7.72,6.28,14,14,14s14-6.28,14-14c0-6.38-4.42-12.03-10.46-13.63l-1.64-5c-.27-.82-1.04-1.38-1.9-1.38h0Z"/>
    </g>
    <path class="st8" d="M942.96,748.85s1.3,3.22-.75,4.7"/>
    <path class="st8" d="M970.64,748.85s-1.3,3.22.75,4.7"/>
  </g>
  <g>
    <g>
      <path class="st20" d="M1036.8,764.41c-7.17,0-13-5.83-13-13,0-6.11,4.36-11.5,10.23-12.79l1.82-5.53c.13-.41.52-.69.95-.69s.82.28.95.69l1.82,5.53c5.88,1.28,10.23,6.67,10.23,12.79,0,7.17-5.83,13-13,13Z"/>
      <path d="M1036.8,733.41l2,6.08c5.68.95,10,5.97,10,11.92,0,6.63-5.37,12-12,12s-12-5.37-12-12c0-5.95,4.32-10.96,10-11.92l2-6.08M1036.8,731.41c-.86,0-1.63.55-1.9,1.38l-1.64,5c-6.04,1.6-10.46,7.25-10.46,13.63,0,7.72,6.28,14,14,14s14-6.28,14-14c0-6.38-4.42-12.03-10.46-13.63l-1.64-5c-.27-.82-1.04-1.38-1.9-1.38h0Z"/>
    </g>
    <path class="st8" d="M1022.96,749.35s1.3,3.22-.75,4.7"/>
    <path class="st8" d="M1050.64,749.35s-1.3,3.22.75,4.7"/>
  </g>
  <g>
    <g>
      <path class="st20" d="M689.4,733.86c-2.29,0-4.55-.61-6.54-1.78-6.19-3.61-8.29-11.59-4.67-17.78,2.34-4.01,6.69-6.51,11.33-6.51,1.35,0,2.68.21,3.95.62l4.35-3.86c.19-.17.42-.25.66-.25.17,0,.35.04.5.14.37.22.56.65.47,1.07l-1.22,5.69c4.43,4.07,5.47,10.92,2.39,16.2-2.32,3.98-6.63,6.45-11.24,6.45Z"/>
      <path d="M698.49,705.31h0M698.49,705.31l-1.34,6.26c4.42,3.68,5.63,10.2,2.63,15.33-2.23,3.82-6.25,5.95-10.37,5.95-2.05,0-4.14-.53-6.04-1.64-5.72-3.34-7.65-10.69-4.31-16.41,2.24-3.84,6.31-6.01,10.47-6.01,1.4,0,2.82.25,4.18.76l4.79-4.24M698.49,703.31s-.03,0-.05,0c-.49.01-.94.2-1.28.51l-3.93,3.48c-1.2-.34-2.44-.51-3.71-.51-5,0-9.67,2.68-12.2,7-1.89,3.23-2.4,7-1.45,10.62.95,3.62,3.25,6.65,6.48,8.53,2.14,1.25,4.58,1.91,7.05,1.91,4.96,0,9.6-2.66,12.1-6.94,3.22-5.51,2.25-12.62-2.16-17.04l1.08-5.04c.04-.17.07-.34.07-.52,0-1.1-.89-2-1.99-2h-.01ZM698.49,707.31h0,0Z"/>
    </g>
    <path class="st8" d="M678.5,712.11s-.5,3.43-3.01,3.68"/>
    <path class="st8" d="M702.4,726.06s-2.74,2.12-1.72,4.43"/>
  </g>
</svg>