<?xml version="1.0" encoding="UTF-8"?>
<svg xmlns="http://www.w3.org/2000/svg" version="1.1" viewBox="0 0 1280 1024">
  <!-- Generator: Adobe Illustrator 29.5.0, SVG Export Plug-In . SVG Version: 2.1.0 Build 137)  -->
  <defs>
    <style>
      .st0, .st1, .st2, .st3, .st4, .st5, .st6, .st7, .st8, .st9, .st10, .st11, .st12, .st13, .st14, .st15, .st16, .st17, .st18, .st19, .st20, .st21, .st22, .st23, .st24, .st25, .st26, .st27, .st28, .st29, .st30, .st31, .st32, .st33, .st34, .st35, .st36, .st37, .st38, .st39, .st40, .st41, .st42, .st43, .st44, .st45, .st46, .st47, .st48, .st49, .st50, .st51, .st52, .st53, .st54, .st55, .st56, .st57, .st58, .st59, .st60, .st61, .st62, .st63, .st64, .st65, .st66, .st67, .st68, .st69, .st70, .st71, .st72, .st73, .st74 {
        fill: none;
        stroke-miterlimit: 10;
      }

      .st0, .st2, .st4, .st5, .st9, .st11, .st12, .st13, .st18, .st19, .st21, .st28, .st31, .st33, .st35, .st38, .st39, .st40, .st41, .st42, .st44, .st47, .st48, .st52, .st53, .st56, .st59, .st65, .st69, .st74 {
        stroke: #000;
      }

      .st0, .st3, .st4, .st5, .st7, .st8, .st9, .st10, .st11, .st12, .st13, .st16, .st18, .st19, .st20, .st21, .st22, .st23, .st24, .st25, .st26, .st27, .st28, .st29, .st30, .st31, .st32, .st33, .st34, .st35, .st36, .st37, .st38, .st39, .st40, .st41, .st43, .st44, .st45, .st47, .st48, .st49, .st50, .st51, .st52, .st53, .st54, .st55, .st56, .st57, .st58, .st59, .st60, .st61, .st62, .st63, .st64, .st65, .st66, .st67, .st68, .st70, .st71, .st72, .st73, .st74 {
        stroke-width: .5px;
      }

      .st1, .st8, .st36, .st37, .st49, .st50, .st54, .st61, .st62, .st64 {
        stroke: #f15a24;
      }

      .st3 {
        stroke-dasharray: 1 1;
      }

      .st3, .st7, .st15, .st20, .st23, .st24, .st30, .st66, .st71 {
        stroke: red;
      }

      .st4, .st32 {
        stroke-dasharray: 1.22 1.22;
      }

      .st5, .st16 {
        stroke-dasharray: 1 1;
      }

      .st6, .st10, .st25, .st26, .st55, .st68, .st70, .st73 {
        stroke: #f0f;
      }

      .st7 {
        stroke-dasharray: 1 2;
      }

      .st8 {
        stroke-dasharray: 1.01 1.01;
      }

      .st9 {
        stroke-dasharray: .99 .99;
      }

      .st10 {
        stroke-dasharray: .99 1.99;
      }

      .st11 {
        stroke-dasharray: 1 1.99;
      }

      .st12 {
        stroke-dasharray: 1 2.01;
      }

      .st13 {
        stroke-dasharray: 1 1;
      }

      .st14, .st63, .st72 {
        stroke: #ff0;
      }

      .st16, .st34 {
        stroke: #ed1c24;
      }

      .st17, .st29, .st51, .st57, .st58, .st60, .st67 {
        stroke: blue;
      }

      .st18, .st61 {
        stroke-dasharray: 1.02 1.02;
      }

      .st19 {
        stroke-dasharray: 1.01 1.01;
      }

      .st20 {
        stroke-dasharray: .97 .97;
      }

      .st21 {
        stroke-dasharray: .99 .99;
      }

      .st22, .st27, .st32, .st43, .st45, .st46 {
        stroke: lime;
      }

      .st22, .st29 {
        stroke-dasharray: .93 .93;
      }

      .st24 {
        stroke-dasharray: .98 1.96;
      }

      .st25, .st40 {
        stroke-dasharray: .94 .94;
      }

      .st26, .st38 {
        stroke-dasharray: 1.01 1.01;
      }

      .st27 {
        stroke-dasharray: .99 1.98;
      }

      .st28 {
        stroke-dasharray: 1 1;
      }

      .st30, .st70 {
        stroke-dasharray: 1.02 1.02;
      }

      .st31 {
        stroke-dasharray: .99 .99;
      }

      .st33 {
        stroke-dasharray: 1 1.99;
      }

      .st35 {
        stroke-dasharray: .98 .98;
      }

      .st36 {
        stroke-dasharray: 1.01 1.01;
      }

      .st37 {
        stroke-dasharray: .95 1.91;
      }

      .st39 {
        stroke-dasharray: 1.01 1.01;
      }

      .st41 {
        stroke-dasharray: 1.15 2.3;
      }

      .st42 {
        stroke-dasharray: 1 2;
      }

      .st42, .st69 {
        stroke-width: 5px;
      }

      .st43 {
        stroke-dasharray: .95 .95;
      }

      .st44 {
        stroke-dasharray: 1.01 2.03;
      }

      .st75 {
        display: none;
      }

      .st76 {
        font-family: MyriadPro-Regular, 'Myriad Pro';
        font-size: 12px;
      }

      .st47, .st57 {
        stroke-dasharray: .98 .98;
      }

      .st48 {
        stroke-dasharray: 1 1.99;
      }

      .st50 {
        stroke-dasharray: 1.01 1.01;
      }

      .st51 {
        stroke-dasharray: 1 1;
      }

      .st52 {
        stroke-dasharray: 1.01 1.01;
      }

      .st53 {
        stroke-dasharray: 1.11 1.11;
      }

      .st54 {
        stroke-dasharray: 1 1;
      }

      .st55 {
        stroke-dasharray: .98 .98;
      }

      .st77 {
        fill: #b3b3b3;
      }

      .st56 {
        stroke-dasharray: 1.01 2.01;
      }

      .st58 {
        stroke-dasharray: 1 2;
      }

      .st59 {
        stroke-dasharray: 1.15 1.15;
      }

      .st60, .st73 {
        stroke-dasharray: 1 1;
      }

      .st62 {
        stroke-dasharray: .99 1.99;
      }

      .st64, .st66 {
        stroke-dasharray: 1 1;
      }

      .st65 {
        stroke-dasharray: 1 1;
      }

      .st71 {
        stroke-dasharray: .99 .99;
      }

      .st72 {
        stroke-dasharray: 1.01 2.01;
      }

      .st78 {
        opacity: .5;
      }

      .st74 {
        stroke-dasharray: .52 .52;
      }
    </style>
  </defs>
  <g id="source_x2B_waves">
    <circle cx="200.04" cy="263" r="5"/>
    <g>
      <circle class="st77" cx="360.04" cy="263" r="5"/>
      <path d="M360.04,258h-.01s0,0,0,0c0,0,0,0,0,0h0s0,0,0,0h0s0,0,0,0h0s0,0,0,0h0s0,0,0,0h0s0,0,0,0h0s0,0,0,0h0s0,0,0,0c0,0,0,0,0,0h0s0,0,0,0c0,0,0,0,0,0,0,0,0,0,0,0h0s0,0,0,0c0,0,0,0,0,0,0,0,0,0,0,0,0,0,0,0,0,0,0,0,0,0,0,0,0,0,0,0,0,0,0,0,0,0,0,0,0,0,0,0,0,0,0,0,0,0,0,0,0,0,0,0,0,0,0,0,0,0,0,0,0,0,0,0,0,0,0,0,0,0,0,0,0,0,0,0,0,0,0,0,0,0,0,0,0,0,0,0,0,0,0,0,0,0,0,0,0,0,0,0,0,0,0,0,0,0,0,0,0,0,0,0,0,0,0,0,0,0,0,0,0,0,0,0,0,0,0,0,0,0,0,0,0,0,0,0,0,0,0,0,0,0,0,0,0,0,0,0,0,0,0,0,0,0,0,0,0,0,0,0,0,0,0,0,0,0,0,0,0,0,0,0,0,0,0,0,0,0,0,0,0,0,0,0,0,0,0,0,0,0,0,0,0,0,0,0,0,0,0,0,0,0,0,0,0,0,0,0,0,0,0,0,0,0,0,0,0,0,0,0,0,0,0,0,0,0,0,0,0,0,0,0,0,0,0,0,0,0,0,0,0,0,0,0,0,0,0,0,0,0,0,0,0,0,0,0,0,0,0,0,0,0,0,0,0,0,0,0,0,0,0,0,0,0,0,0,0,0,0,0,0,0,0,0,0,0,0,0,0,0,0,0,0,0,0,0,0,0,0,0,0,0,0,0,0,0,0,0,0,0,0,0,0,0,0,0,0,0,0,0,0,0,0,0,0,0,0,0,0,0,0,0,0,0,0,0,0,0,0,0,0,0,0,0,0,0,0,0,0,0,0,0,0,0,0,0,0,0,0,0,0,0,0,0,0,0,0,0,0,0,0,0,0,0,0,0,0,0,0,0,0,0,0,0,0,0,0,0,0,0,0,0,0,0,0,0,0,0,0,0,0,0,0,0,0,0,0,0,0,0,0,0,0,0,0,0,0,0,0,0,0,0,0,0,0,0,0,0,0,0,0,0,0,0,0,0,0,0,0,0,0,0,0,0,0,0,0,0,0,0,0,0,0,0,0,0,0,0,0,0,0,0,0,0,0,0,0,0,0,0,0,0,0,0,0,0,0,0,0,0,0,0,0,0,0,0,0,0,0,0,0,0,0,0,0,0,0,0,0,0,0,0,0,0,0,0,0,0,0,0,0,0,0,0,0,0h0s0,0,0,0c0,0,0,0,0,0,0,0,0,0,0,0h0s0,0,0,0c0,0,0,0,0,0-.02,0-.03,0-.05,0h0s-.01,0-.02,0c0,0,0,0,0,0,0,0,0,0,0,0,0,0,0,0,0,0,0,0,0,0,0,0,0,0,0,0,0,0,0,0,0,0,0,0,0,0,0,0,0,0,0,0,0,0,0,0,0,0,0,0,0,0,0,0,0,0,0,0,0,0,0,0,0,0,0,0,0,0,0,0,0,0,0,0,0,0,0,0,0,0,0,0,0,0,0,0,0,0,0,0,0,0,0,0h0s0,0,0,0h0s0,0,0,0c0,0,0,0,0,0,0,0,0,0,0,0,0,0,0,0,0,0,0,0,0,0,0,0h0s0,0,0,0c0,0,0,0,0,0,0,0,0,0,0,0h0s0,0,0,0c0,0,0,0,0,0,0,0,0,0,0,0,0,0,0,0,0,0h0s0,0,0,0h0s0,0,0,0c0,0,0,0,0,0,0,0,0,0,0,0,0,0,0,0,0,0,0,0,0,0,0,0,0,0,0,0,0,0,0,0,0,0,0,0,0,0,0,0,0,0,0,0,0,0,0,0,0,0,0,0,0,0,0,0,0,0,0,0,0,0,0,0,0,0,0,0,0,0,0,0h0s0,0,0,0c0,0,0,0,0,0h0s0,0,0,0c0,0,0,0,0,0,0,0,0,0,0,0,0,0,0,0,0,0,0,0,0,0,0,0,0,0,0,0,0,0,0,0,0,0,0,0,0,0,0,0,0,0,0,0,0,0,0,0,0,0,0,0,0,0,0,0,0,0,0,0,0,0,0,0,0,0,0,0,0,0,0,0,0,0,0,0,0,0,0,0,0,0,0,0,0,0,0,0,0,0,0,0,0,0,0,0,0,0,0,0,0,0,0,0,0,0,0,0h0s0,0,0,0c0,0,0,0,0,0,0,0,0,0,0,0,0,0,0,0,0,0,0,0,0,0,0,0,0,0,0,0,0,0s0,0,0,0c0,0,0,0,0,0,0,0,0,0,0,0,0,0,0,0,0,0,0,0,0,0,0,0,0,0,0,0,0,0,0,0,0,0,0,0,0,0,0,0,0,0,0,0,0,0,0,0,0,0,0,0,0,0,0,0,0,0,0,0,0,0,0,0,0,0,0,0,0,0,0,0,0,0,0,0,0,0,0,0,0,0,0,0,0,0,0,0,0,0,0,0,0,0,0,0,0,0,0,0,0,0h0s0,0,0,0h0s-.07,0-.11.01h0c-.12.02-.25.04-.37.06l.2.98c.26-.05.53-.08.8-.08v-1h0ZM358.09,258.39c-.11.05-.22.1-.33.16h0s0,0,0,0h0s0,0,0,0c0,0,0,0,0,0,0,0,0,0,0,0,0,0,0,0,0,0,0,0,0,0,0,0,0,0,0,0,0,0,0,0,0,0,0,0h0s0,0,0,0c0,0,0,0,0,0,0,0,0,0,0,0h0s0,0,0,0c0,0,0,0,0,0,0,0,0,0,0,0h0s0,0,0,0h0s-.02.01-.03.02h0s0,0,0,0t0,0s0,0,0,0c0,0,0,0,0,0,0,0,0,0,0,0,0,0,0,0,0,0,0,0,0,0,0,0,0,0,0,0,0,0,0,0,0,0,0,0,0,0,0,0,0,0,0,0,0,0,0,0,0,0,0,0,0,0,0,0,0,0,0,0,0,0,0,0,0,0,0,0,0,0,0,0,0,0,0,0,0,0,0,0,0,0,0,0,0,0,0,0,0,0,0,0,0,0,0,0,0,0,0,0,0,0,0,0,0,0,0,0,0,0,0,0,0,0,0,0,0,0,0,0,0,0,0,0,0,0,0,0,0,0,0,0,0,0,0,0,0,0s0,0,0,0c0,0,0,0,0,0,0,0,0,0,0,0h0s0,0,0,0c0,0,0,0,0,0h0s0,0,0,0c0,0,0,0,0,0,0,0,0,0,0,0,0,0,0,0,0,0,0,0,0,0,0,0,0,0,0,0,0,0,0,0,0,0,0,0,0,0,0,0,0,0,0,0,0,0,0,0,0,0,0,0,0,0,0,0,0,0,0,0,0,0,0,0,0,0,0,0,0,0,0,0,0,0,0,0,0,0-.01,0-.02.01-.03.02,0,0,0,0,0,0,0,0-.02,0-.03.01h0c-.11.07-.23.14-.33.21l.57.82c.22-.15.46-.28.7-.38l-.39-.92h0ZM356.45,259.52c-.23.24-.44.5-.62.78l.84.54c.14-.22.31-.43.5-.63l-.72-.7h0ZM355.38,261.19c-.12.31-.21.63-.27.96l.99.17c.04-.26.12-.52.21-.77l-.93-.36h0ZM356.04,263.12l-1,.03c0,.29.04.58.1.85h0s0,0,0,0c0,0,0,0,0,0,0,0,0,0,0,0,0,0,0,0,0,0,0,0,0,0,0,0,0,0,0,0,0,0,0,0,0,0,0,0,0,.04.02.08.03.12l.97-.23c-.06-.26-.09-.52-.1-.79h0ZM356.4,264.66l-.91.42s0,.02.01.03h0s0,0,0,0h0s0,0,0,0h0s0,0,0,0c0,0,0,0,0,0,0,0,0,0,0,0,0,0,0,0,0,0,0,0,0,0,0,0,0,0,0,0,0,.01,0,0,0,0,0,0,0,0,0,0,0,0,0,0,0,0,0,0,0,0,0,0,0,0,0,0,0,0,0,0,0,0,0,0,0,0h0s0,0,0,0c0,0,0,0,0,0,.08.17.18.34.28.5,0,0,0,0,0,0,0,0,0,0,0,0t0,0s0,.01.01.02c0,0,0,0,0,0,0,.01.02.03.03.04,0,0,0,0,0,0,0,0,0,0,0,0h0s0,0,0,0c0,0,0,0,0,0,0,0,0,0,0,0,0,0,0,0,0,0,0,0,0,0,0,0,0,0,0,0,0,0,0,0,0,0,0,0,0,0,0,0,0,0,0,0,0,0,0,0,0,0,0,0,0,0,0,0,0,0,0,0h0s0,0,0,0c0,0,0,0,0,0,0,0,0,0,0,0,0,0,0,0,0,0,0,0,0,0,0,0,0,0,0,0,0,0,0,0,0,0,0,0,0,0,0,0,0,0,0,0,0,0,0,0,0,0,0,0,0,0,0,0,0,0,0,0,0,0,0,0,0,0,0,0,0,0,0,0,0,0,0,0,0,0,0,0,0,0,0,0,0,0,0,0,0,0,0,0,0,0,0,0,0,0,0,0,0,0,0,0,0,0,0,0h0s0,0,0,0h0s0,0,0,0c0,0,0,0,0,0,0,0,0,.01.01.02,0,0,0,0,0,0,0,0,0,0,0,0,0,0,0,0,0,0,0,0,0,0,0,0,0,0,0,0,0,0,0,0,0,0,0,0,0,0,0,0,0,0,0,0,0,0,0,0,0,0,0,0,0,0,0,0,0,0,0,0,0,0,0,0,0,0,0,0,0,0,0,0,0,0,0,0,0,0,0,0,0,0,0,0,0,0,0,0,0,0,0,0,0,0,0,0h0s0,0,0,0c0,0,0,0,0,0,0,0,0,0,0,0,0,0,0,0,0,0,0,0,0,0,0,0,0,0,0,0,0,0,0,0,0,0,0,0h0s0,0,0,0c0,0,0,0,0,0,0,0,0,0,0,0,0,0,0,0,0,0,0,0,0,0,0,0,0,0,0,0,0,0,.02.02.03.05.05.07l.81-.59c-.16-.22-.29-.45-.4-.69h0ZM357.34,265.95l-.68.74c.07.07.15.13.23.2,0,0,0,0,0,0,0,0,0,0,0,0,0,0,0,0,0,0,0,0,0,0,0,0,0,0,0,0,0,0,0,0,0,0,0,0,0,0,0,0,0,0,0,0,0,0,0,0,0,0,0,0,0,0,0,0,0,0,0,0,0,0,0,0,0,0,0,0,0,0,0,0,0,0,0,0,0,0,0,0,0,0,0,0s0,0,0,0c0,0,0,0,0,0,0,0,0,0,0,0,0,0,0,0,0,0h0s0,0,0,0c0,0,0,0,0,0,0,0,0,0,0,0,0,0,0,0,0,0,0,0,0,0,0,0,0,0,0,0,0,0,0,0,0,0,0,0,0,0,0,0,0,0,0,0,0,0,0,0,0,0,0,0,0,0h0c.17.13.34.25.53.36l.52-.86c-.23-.14-.44-.3-.64-.48h0ZM358.7,266.77l-.34.94h0s0,0,0,0c0,0,0,0,0,0,0,0,0,0,0,0,0,0,0,0,0,0,0,0,0,0,0,0,0,0,0,0,0,0,0,0,0,0,0,0,0,0,0,0,0,0,0,0,0,0,0,0,0,0,0,0,0,0,0,0,0,0,0,0,0,0,0,0,0,0,0,0,0,0,0,0,0,0,0,0,0,0,0,0,0,0,0,0,0,0,0,0,0,0,0,0,0,0,0,0,0,0,0,0,0,0,0,0,0,0,0,0,0,0,0,0,0,0,0,0,0,0,0,0,0,0,0,0,0,0,0,0,0,0,0,0,.3.1.61.18.92.22l.14-.99c-.26-.04-.52-.1-.77-.19h0ZM361.06,266.87c-.26.07-.52.11-.79.12l.06,1c.34-.02.67-.07.99-.16l-.25-.97h0ZM362.48,266.17c-.21.16-.44.31-.68.42l.44.9c.17-.08.33-.18.49-.28h0s0,0,0,0c0,0,0,0,0,0,0,0,0,0,0,0,0,0,0,0,0,0,0,0,0,0,0,0,0,0,0,0,0,0,0,0,0,0,0,0,0,0,0,0,0,0,0,0,0,0,0,0,0,0,0,0,0,0,0,0,0,0,0,0,0,0,0,0,0,0h0s0,0,0,0c0,0,0,0,0,0,0,0,0,0,0,0,0,0,0,0,0,0,0,0,0,0,0,0,0,0,0,0,0,0,0,0,0,0,0,0,0,0,0,0,0,0,0,0,0,0,0,0,0,0,0,0,0,0,0,0,0,0,0,0,0,0,0,0,0,0,.11-.07.21-.14.31-.22l-.61-.79h0ZM363.53,264.96c-.13.23-.29.45-.46.65l.76.65s.07-.08.1-.12c0,0,0,0,0,0,0,0,0,0,0,0,0,0,0,0,0,0,0,0,0,0,0,0,0,0,0,0,0,0,0,0,0,0,0,0,0,0,0,0,0,0,0,0,0,0,0,0,0,0,0,0,0,0,0,0,0,0,0,0,0,0,0,0,0,0,0,0,0,0,0,0s0,0,0,0,0,0,0,0,0,0,0,0c0,0,0,0,0,0,0,0,0,0,0,0,0,0,0,0,0,0,0,0,0,0,0,0,0,0,0,0,0,0,0,0,0,0,0,0,0,0,0,0,0,0,0,0,0,0,0,0,0,0,0,0,0,0,0,0,0,0,0,0,0,0,0,0,0,0,0,0,0,0,0,0h0s0,0,0,0c0,0,0,0,0,0,.16-.21.31-.42.44-.65l-.87-.49h0ZM364.01,263.45c-.03.26-.09.53-.17.78l.95.31c.04-.14.08-.28.12-.42h0s0,0,0,0h0s0,0,0,0c0,0,0,0,0,0,0,0,0,0,0,0,0,0,0,0,0,0h0s0,0,0,0c0,0,0,0,0,0,0,0,0,0,0,0,0,0,0,0,0,0,0,0,0,0,0,0,0,0,0,0,0,0,0,0,0,0,0,0,0,0,0,0,0,0,0,0,0,0,0,0,0,0,0,0,0,0,.04-.17.07-.34.09-.52l-.99-.11h0ZM364.84,261.58l-.96.28c.07.25.12.52.15.78l1-.09c-.03-.34-.09-.67-.18-.98h0ZM363.9,259.83l-.77.63c.17.21.32.43.44.66l.88-.47c-.04-.07-.07-.13-.11-.2,0,0,0,0,0,0,0,0,0,0,0,0,0,0,0,0,0,0,0,0,0,0,0,0,0,0,0,0,0,0,0,0,0,0,0,0,0,0,0,0,0,0,0,0,0,0,0,0,0,0,0,0,0,0h0s0,0,0,0c0,0,0,0,0,0,0,0,0,0,0,0,0,0,0,0,0,0,0,0,0,0,0,0,0,0,0,0,0,0,0,0,0,0,0,0,0,0,0,0,0,0,0,0,0,0,0,0,0,0,0,0,0,0,0,0,0,0,0,0,0,0,0,0,0,0h0s0,0,0,0h0s0,0,0,0c0,0,0,0,0,0,0,0,0,0,0,0,0,0,0,0,0,0,0,0,0,0,0,0-.12-.21-.26-.4-.41-.59h0ZM362.36,258.57l-.47.88c.24.12.46.27.67.44l.63-.77s-.04-.03-.06-.05c0,0,0,0,0,0,0,0,0,0,0,0,0,0,0,0,0,0,0,0,0,0,0,0,0,0,0,0,0,0,0,0,0,0,0,0h0s0,0,0,0c0,0,0,0,0,0,0,0,0,0,0,0,0,0,0,0,0,0,0,0,0,0,0,0,0,0,0,0,0,0h0s0,0,0,0c0,0,0,0,0,0,0,0,0,0,0,0h0c-.23-.18-.48-.34-.75-.48h0ZM360.46,258.02l-.08,1c.27.02.53.07.78.15l.28-.96c-.07-.02-.14-.04-.2-.05,0,0,0,0,0,0,0,0,0,0,0,0h0s0,0,0,0c0,0,0,0,0,0,0,0,0,0,0,0,0,0,0,0,0,0,0,0,0,0,0,0,0,0,0,0,0,0,0,0,0,0,0,0,0,0,0,0,0,0,0,0,0,0,0,0,0,0,0,0,0,0,0,0,0,0,0,0,0,0,0,0,0,0,0,0,0,0,0,0,0,0,0,0,0,0,0,0,0,0,0,0,0,0,0,0,0,0,0,0,0,0,0,0,0,0,0,0,0,0,0,0,0,0,0,0,0,0,0,0,0,0,0,0,0,0,0,0,0,0,0,0,0,0,0,0,0,0,0,0,0,0,0,0,0,0,0,0,0,0,0,0h0s0,0,0,0c0,0,0,0,0,0,0,0,0,0,0,0,0,0,0,0,0,0,0,0,0,0,0,0h0s0,0,0,0h0s0,0,0,0c0,0,0,0,0,0h0c-.16-.04-.33-.07-.5-.09h0s0,0,0,0c0,0,0,0,0,0,0,0,0,0,0,0,0,0,0,0,0,0,0,0,0,0,0,0,0,0,0,0,0,0,0,0,0,0,0,0,0,0,0,0,0,0,0,0,0,0,0,0,0,0,0,0,0,0,0,0,0,0,0,0h0s0,0,0,0c0,0,0,0,0,0,0,0,0,0,0,0,0,0,0,0,0,0,0,0,0,0,0,0,0,0,0,0,0,0,0,0,0,0,0,0,0,0,0,0,0,0,0,0,0,0,0,0,0,0,0,0,0,0,0,0,0,0,0,0,0,0,0,0,0,0,0,0,0,0,0,0,0,0,0,0,0,0,0,0,0,0,0,0,0,0,0,0,0,0,0,0,0,0,0,0-.05,0-.09,0-.14-.01h0Z"/>
    </g>
    <circle class="st2" cx="200.04" cy="263" r="10"/>
    <circle class="st1" cx="200.04" cy="263" r="15"/>
    <circle class="st2" cx="200.04" cy="263" r="20"/>
    <circle class="st14" cx="200.04" cy="263" r="25"/>
    <circle class="st2" cx="200.04" cy="263" r="30"/>
    <circle class="st46" cx="200.04" cy="263" r="35"/>
    <circle class="st2" cx="200.04" cy="263" r="40"/>
    <circle class="st17" cx="200.04" cy="263" r="45"/>
    <circle class="st2" cx="200.04" cy="263" r="50"/>
    <circle class="st6" cx="200.04" cy="263" r="55"/>
    <circle class="st2" cx="200.04" cy="263" r="60"/>
    <circle class="st15" cx="200.04" cy="263" r="65"/>
    <circle class="st2" cx="200.04" cy="263" r="70"/>
    <g>
      <circle class="st77" cx="520.04" cy="263" r="5"/>
      <path d="M520.04,258h-.01s0,0,0,0c0,0,0,0,0,0h0s0,0,0,0h0s0,0,0,0h0s0,0,0,0h0s0,0,0,0h0s0,0,0,0h0s0,0,0,0h0s0,0,0,0c0,0,0,0,0,0h0s0,0,0,0c0,0,0,0,0,0,0,0,0,0,0,0h0s0,0,0,0c0,0,0,0,0,0,0,0,0,0,0,0,0,0,0,0,0,0,0,0,0,0,0,0,0,0,0,0,0,0,0,0,0,0,0,0,0,0,0,0,0,0,0,0,0,0,0,0,0,0,0,0,0,0,0,0,0,0,0,0,0,0,0,0,0,0,0,0,0,0,0,0,0,0,0,0,0,0,0,0,0,0,0,0,0,0,0,0,0,0,0,0,0,0,0,0,0,0,0,0,0,0,0,0,0,0,0,0,0,0,0,0,0,0,0,0,0,0,0,0,0,0,0,0,0,0,0,0,0,0,0,0,0,0,0,0,0,0,0,0,0,0,0,0,0,0,0,0,0,0,0,0,0,0,0,0,0,0,0,0,0,0,0,0,0,0,0,0,0,0,0,0,0,0,0,0,0,0,0,0,0,0,0,0,0,0,0,0,0,0,0,0,0,0,0,0,0,0,0,0,0,0,0,0,0,0,0,0,0,0,0,0,0,0,0,0,0,0,0,0,0,0,0,0,0,0,0,0,0,0,0,0,0,0,0,0,0,0,0,0,0,0,0,0,0,0,0,0,0,0,0,0,0,0,0,0,0,0,0,0,0,0,0,0,0,0,0,0,0,0,0,0,0,0,0,0,0,0,0,0,0,0,0,0,0,0,0,0,0,0,0,0,0,0,0,0,0,0,0,0,0,0,0,0,0,0,0,0,0,0,0,0,0,0,0,0,0,0,0,0,0,0,0,0,0,0,0,0,0,0,0,0,0,0,0,0,0,0,0,0,0,0,0,0,0,0,0,0,0,0,0,0,0,0,0,0,0,0,0,0,0,0,0,0,0,0,0,0,0,0,0,0,0,0,0,0,0,0,0,0,0,0,0,0,0,0,0,0,0,0,0,0,0,0,0,0,0,0,0,0,0,0,0,0,0,0,0,0,0,0,0,0,0,0,0,0,0,0,0,0,0,0,0,0,0,0,0,0,0,0,0,0,0,0,0,0,0,0,0,0,0,0,0,0,0,0,0,0,0,0,0,0,0,0,0,0,0,0,0,0,0,0,0,0,0,0,0,0,0,0,0,0,0,0,0,0,0,0,0,0,0,0,0,0,0,0,0,0,0,0,0,0,0,0,0,0,0,0,0,0,0,0,0,0,0,0,0,0,0,0,0,0,0,0,0,0h0s0,0,0,0c0,0,0,0,0,0,0,0,0,0,0,0h0s0,0,0,0c0,0,0,0,0,0-.02,0-.03,0-.05,0h0s-.01,0-.02,0c0,0,0,0,0,0,0,0,0,0,0,0,0,0,0,0,0,0,0,0,0,0,0,0,0,0,0,0,0,0,0,0,0,0,0,0,0,0,0,0,0,0,0,0,0,0,0,0,0,0,0,0,0,0,0,0,0,0,0,0,0,0,0,0,0,0,0,0,0,0,0,0,0,0,0,0,0,0,0,0,0,0,0,0,0,0,0,0,0,0,0,0,0,0,0,0h0s0,0,0,0h0s0,0,0,0c0,0,0,0,0,0,0,0,0,0,0,0,0,0,0,0,0,0,0,0,0,0,0,0h0s0,0,0,0c0,0,0,0,0,0,0,0,0,0,0,0h0s0,0,0,0c0,0,0,0,0,0,0,0,0,0,0,0,0,0,0,0,0,0h0s0,0,0,0h0s0,0,0,0c0,0,0,0,0,0,0,0,0,0,0,0,0,0,0,0,0,0,0,0,0,0,0,0,0,0,0,0,0,0,0,0,0,0,0,0,0,0,0,0,0,0,0,0,0,0,0,0,0,0,0,0,0,0,0,0,0,0,0,0,0,0,0,0,0,0,0,0,0,0,0,0h0s0,0,0,0c0,0,0,0,0,0h0s0,0,0,0c0,0,0,0,0,0,0,0,0,0,0,0,0,0,0,0,0,0,0,0,0,0,0,0,0,0,0,0,0,0,0,0,0,0,0,0,0,0,0,0,0,0,0,0,0,0,0,0,0,0,0,0,0,0,0,0,0,0,0,0,0,0,0,0,0,0,0,0,0,0,0,0,0,0,0,0,0,0,0,0,0,0,0,0,0,0,0,0,0,0,0,0,0,0,0,0,0,0,0,0,0,0,0,0,0,0,0,0h0s0,0,0,0c0,0,0,0,0,0,0,0,0,0,0,0,0,0,0,0,0,0,0,0,0,0,0,0,0,0,0,0,0,0s0,0,0,0c0,0,0,0,0,0,0,0,0,0,0,0,0,0,0,0,0,0,0,0,0,0,0,0,0,0,0,0,0,0,0,0,0,0,0,0,0,0,0,0,0,0,0,0,0,0,0,0,0,0,0,0,0,0,0,0,0,0,0,0,0,0,0,0,0,0,0,0,0,0,0,0,0,0,0,0,0,0,0,0,0,0,0,0,0,0,0,0,0,0,0,0,0,0,0,0,0,0,0,0,0,0h0s0,0,0,0h0s-.07,0-.11.01h0c-.12.02-.25.04-.37.06l.2.98c.26-.05.53-.08.8-.08v-1h0ZM518.09,258.39c-.11.05-.22.1-.33.16h0s0,0,0,0h0s0,0,0,0c0,0,0,0,0,0,0,0,0,0,0,0,0,0,0,0,0,0,0,0,0,0,0,0,0,0,0,0,0,0,0,0,0,0,0,0h0s0,0,0,0c0,0,0,0,0,0,0,0,0,0,0,0h0s0,0,0,0c0,0,0,0,0,0,0,0,0,0,0,0h0s0,0,0,0h0s-.02.01-.03.02h0s0,0,0,0t0,0s0,0,0,0c0,0,0,0,0,0,0,0,0,0,0,0,0,0,0,0,0,0,0,0,0,0,0,0,0,0,0,0,0,0,0,0,0,0,0,0,0,0,0,0,0,0,0,0,0,0,0,0,0,0,0,0,0,0,0,0,0,0,0,0,0,0,0,0,0,0,0,0,0,0,0,0,0,0,0,0,0,0,0,0,0,0,0,0,0,0,0,0,0,0,0,0,0,0,0,0,0,0,0,0,0,0,0,0,0,0,0,0,0,0,0,0,0,0,0,0,0,0,0,0,0,0,0,0,0,0,0,0,0,0,0,0,0,0,0,0,0,0s0,0,0,0c0,0,0,0,0,0,0,0,0,0,0,0h0s0,0,0,0c0,0,0,0,0,0h0s0,0,0,0c0,0,0,0,0,0,0,0,0,0,0,0,0,0,0,0,0,0,0,0,0,0,0,0,0,0,0,0,0,0,0,0,0,0,0,0,0,0,0,0,0,0,0,0,0,0,0,0,0,0,0,0,0,0,0,0,0,0,0,0,0,0,0,0,0,0,0,0,0,0,0,0,0,0,0,0,0,0-.01,0-.02.01-.03.02,0,0,0,0,0,0,0,0-.02,0-.03.01h0c-.11.07-.23.14-.33.21l.57.82c.22-.15.46-.28.7-.38l-.39-.92h0ZM516.45,259.52c-.23.24-.44.5-.62.78l.84.54c.14-.22.31-.43.5-.63l-.72-.7h0ZM515.38,261.19c-.12.31-.21.63-.27.96l.99.17c.04-.26.12-.52.21-.77l-.93-.36h0ZM516.04,263.12l-1,.03c0,.29.04.58.1.85h0s0,0,0,0c0,0,0,0,0,0,0,0,0,0,0,0,0,0,0,0,0,0,0,0,0,0,0,0,0,0,0,0,0,0,0,0,0,0,0,0,0,.04.02.08.03.12l.97-.23c-.06-.26-.09-.52-.1-.79h0ZM516.4,264.66l-.91.42s0,.02.01.03h0s0,0,0,0h0s0,0,0,0h0s0,0,0,0c0,0,0,0,0,0,0,0,0,0,0,0,0,0,0,0,0,0,0,0,0,0,0,0,0,0,0,0,0,.01,0,0,0,0,0,0,0,0,0,0,0,0,0,0,0,0,0,0,0,0,0,0,0,0,0,0,0,0,0,0,0,0,0,0,0,0h0s0,0,0,0c0,0,0,0,0,0,.08.17.18.34.28.5,0,0,0,0,0,0,0,0,0,0,0,0t0,0s0,.01.01.02c0,0,0,0,0,0,0,.01.02.03.03.04,0,0,0,0,0,0,0,0,0,0,0,0h0s0,0,0,0c0,0,0,0,0,0,0,0,0,0,0,0,0,0,0,0,0,0,0,0,0,0,0,0,0,0,0,0,0,0,0,0,0,0,0,0,0,0,0,0,0,0,0,0,0,0,0,0,0,0,0,0,0,0,0,0,0,0,0,0h0s0,0,0,0c0,0,0,0,0,0,0,0,0,0,0,0,0,0,0,0,0,0,0,0,0,0,0,0,0,0,0,0,0,0,0,0,0,0,0,0,0,0,0,0,0,0,0,0,0,0,0,0,0,0,0,0,0,0,0,0,0,0,0,0,0,0,0,0,0,0,0,0,0,0,0,0,0,0,0,0,0,0,0,0,0,0,0,0,0,0,0,0,0,0,0,0,0,0,0,0,0,0,0,0,0,0,0,0,0,0,0,0h0s0,0,0,0h0s0,0,0,0c0,0,0,0,0,0,0,0,0,.01.01.02,0,0,0,0,0,0,0,0,0,0,0,0,0,0,0,0,0,0,0,0,0,0,0,0,0,0,0,0,0,0,0,0,0,0,0,0,0,0,0,0,0,0,0,0,0,0,0,0,0,0,0,0,0,0,0,0,0,0,0,0,0,0,0,0,0,0,0,0,0,0,0,0,0,0,0,0,0,0,0,0,0,0,0,0,0,0,0,0,0,0,0,0,0,0,0,0h0s0,0,0,0c0,0,0,0,0,0,0,0,0,0,0,0,0,0,0,0,0,0,0,0,0,0,0,0,0,0,0,0,0,0,0,0,0,0,0,0h0s0,0,0,0c0,0,0,0,0,0,0,0,0,0,0,0,0,0,0,0,0,0,0,0,0,0,0,0,0,0,0,0,0,0,.02.02.03.05.05.07l.81-.59c-.16-.22-.29-.45-.4-.69h0ZM517.34,265.95l-.68.74c.07.07.15.13.23.2,0,0,0,0,0,0,0,0,0,0,0,0,0,0,0,0,0,0,0,0,0,0,0,0,0,0,0,0,0,0,0,0,0,0,0,0,0,0,0,0,0,0,0,0,0,0,0,0,0,0,0,0,0,0,0,0,0,0,0,0,0,0,0,0,0,0,0,0,0,0,0,0,0,0,0,0,0,0,0,0,0,0,0,0s0,0,0,0c0,0,0,0,0,0,0,0,0,0,0,0,0,0,0,0,0,0h0s0,0,0,0c0,0,0,0,0,0,0,0,0,0,0,0,0,0,0,0,0,0,0,0,0,0,0,0,0,0,0,0,0,0,0,0,0,0,0,0,0,0,0,0,0,0,0,0,0,0,0,0,0,0,0,0,0,0h0c.17.13.34.25.53.36l.52-.86c-.23-.14-.44-.3-.64-.48h0ZM518.7,266.77l-.34.94h0s0,0,0,0c0,0,0,0,0,0,0,0,0,0,0,0,0,0,0,0,0,0,0,0,0,0,0,0,0,0,0,0,0,0,0,0,0,0,0,0,0,0,0,0,0,0,0,0,0,0,0,0,0,0,0,0,0,0,0,0,0,0,0,0,0,0,0,0,0,0,0,0,0,0,0,0,0,0,0,0,0,0,0,0,0,0,0,0,0,0,0,0,0,0,0,0,0,0,0,0,0,0,0,0,0,0,0,0,0,0,0,0,0,0,0,0,0,0,0,0,0,0,0,0,0,0,0,0,0,0,0,0,0,0,0,0,.3.1.61.18.92.22l.14-.99c-.26-.04-.52-.1-.77-.19h0ZM521.06,266.87c-.26.07-.52.11-.79.12l.06,1c.34-.02.67-.07.99-.16l-.25-.97h0ZM522.48,266.17c-.21.16-.44.31-.68.42l.44.9c.17-.08.33-.18.49-.28h0s0,0,0,0c0,0,0,0,0,0,0,0,0,0,0,0,0,0,0,0,0,0,0,0,0,0,0,0,0,0,0,0,0,0,0,0,0,0,0,0,0,0,0,0,0,0,0,0,0,0,0,0,0,0,0,0,0,0,0,0,0,0,0,0,0,0,0,0,0,0h0s0,0,0,0c0,0,0,0,0,0,0,0,0,0,0,0,0,0,0,0,0,0,0,0,0,0,0,0,0,0,0,0,0,0,0,0,0,0,0,0,0,0,0,0,0,0,0,0,0,0,0,0,0,0,0,0,0,0,0,0,0,0,0,0,0,0,0,0,0,0,.11-.07.21-.14.31-.22l-.61-.79h0ZM523.53,264.96c-.13.23-.29.45-.46.65l.76.65s.07-.08.1-.12c0,0,0,0,0,0,0,0,0,0,0,0,0,0,0,0,0,0,0,0,0,0,0,0,0,0,0,0,0,0,0,0,0,0,0,0,0,0,0,0,0,0,0,0,0,0,0,0,0,0,0,0,0,0,0,0,0,0,0,0,0,0,0,0,0,0,0,0,0,0,0,0s0,0,0,0,0,0,0,0,0,0,0,0c0,0,0,0,0,0,0,0,0,0,0,0,0,0,0,0,0,0,0,0,0,0,0,0,0,0,0,0,0,0,0,0,0,0,0,0,0,0,0,0,0,0,0,0,0,0,0,0,0,0,0,0,0,0,0,0,0,0,0,0,0,0,0,0,0,0,0,0,0,0,0,0h0s0,0,0,0c0,0,0,0,0,0,.16-.21.31-.42.44-.65l-.87-.49h0ZM524.01,263.45c-.03.26-.09.53-.17.78l.95.31c.04-.14.08-.28.12-.42h0s0,0,0,0h0s0,0,0,0c0,0,0,0,0,0,0,0,0,0,0,0,0,0,0,0,0,0h0s0,0,0,0c0,0,0,0,0,0,0,0,0,0,0,0,0,0,0,0,0,0,0,0,0,0,0,0,0,0,0,0,0,0,0,0,0,0,0,0,0,0,0,0,0,0,0,0,0,0,0,0,0,0,0,0,0,0,.04-.17.07-.34.09-.52l-.99-.11h0ZM524.84,261.58l-.96.28c.07.25.12.52.15.78l1-.09c-.03-.34-.09-.67-.18-.98h0ZM523.9,259.83l-.77.63c.17.21.32.43.44.66l.88-.47c-.04-.07-.07-.13-.11-.2,0,0,0,0,0,0,0,0,0,0,0,0,0,0,0,0,0,0,0,0,0,0,0,0,0,0,0,0,0,0,0,0,0,0,0,0,0,0,0,0,0,0,0,0,0,0,0,0,0,0,0,0,0,0h0s0,0,0,0c0,0,0,0,0,0,0,0,0,0,0,0,0,0,0,0,0,0,0,0,0,0,0,0,0,0,0,0,0,0,0,0,0,0,0,0,0,0,0,0,0,0,0,0,0,0,0,0,0,0,0,0,0,0,0,0,0,0,0,0,0,0,0,0,0,0h0s0,0,0,0h0s0,0,0,0c0,0,0,0,0,0,0,0,0,0,0,0,0,0,0,0,0,0,0,0,0,0,0,0-.12-.21-.26-.4-.41-.59h0ZM522.36,258.57l-.47.88c.24.12.46.27.67.44l.63-.77s-.04-.03-.06-.05c0,0,0,0,0,0,0,0,0,0,0,0,0,0,0,0,0,0,0,0,0,0,0,0,0,0,0,0,0,0,0,0,0,0,0,0h0s0,0,0,0c0,0,0,0,0,0,0,0,0,0,0,0,0,0,0,0,0,0,0,0,0,0,0,0,0,0,0,0,0,0h0s0,0,0,0c0,0,0,0,0,0,0,0,0,0,0,0h0c-.23-.18-.48-.34-.75-.48h0ZM520.46,258.02l-.08,1c.27.02.53.07.78.15l.28-.96c-.07-.02-.14-.04-.2-.05,0,0,0,0,0,0,0,0,0,0,0,0h0s0,0,0,0c0,0,0,0,0,0,0,0,0,0,0,0,0,0,0,0,0,0,0,0,0,0,0,0,0,0,0,0,0,0,0,0,0,0,0,0,0,0,0,0,0,0,0,0,0,0,0,0,0,0,0,0,0,0,0,0,0,0,0,0,0,0,0,0,0,0,0,0,0,0,0,0,0,0,0,0,0,0,0,0,0,0,0,0,0,0,0,0,0,0,0,0,0,0,0,0,0,0,0,0,0,0,0,0,0,0,0,0,0,0,0,0,0,0,0,0,0,0,0,0,0,0,0,0,0,0,0,0,0,0,0,0,0,0,0,0,0,0,0,0,0,0,0,0h0s0,0,0,0c0,0,0,0,0,0,0,0,0,0,0,0,0,0,0,0,0,0,0,0,0,0,0,0h0s0,0,0,0h0s0,0,0,0c0,0,0,0,0,0h0c-.16-.04-.33-.07-.5-.09h0s0,0,0,0c0,0,0,0,0,0,0,0,0,0,0,0,0,0,0,0,0,0,0,0,0,0,0,0,0,0,0,0,0,0,0,0,0,0,0,0,0,0,0,0,0,0,0,0,0,0,0,0,0,0,0,0,0,0,0,0,0,0,0,0h0s0,0,0,0c0,0,0,0,0,0,0,0,0,0,0,0,0,0,0,0,0,0,0,0,0,0,0,0,0,0,0,0,0,0,0,0,0,0,0,0,0,0,0,0,0,0,0,0,0,0,0,0,0,0,0,0,0,0,0,0,0,0,0,0,0,0,0,0,0,0,0,0,0,0,0,0,0,0,0,0,0,0,0,0,0,0,0,0,0,0,0,0,0,0,0,0,0,0,0,0-.05,0-.09,0-.14-.01h0Z"/>
    </g>
    <circle class="st1" cx="200.04" cy="263" r="75"/>
  </g>
  <g id="speakers">
    <g>
      <path d="M363.5,283.5v6h-6v-6h6M364,283h-7v7h7v-7h0Z"/>
      <path d="M360.5,286.9l2.87,2.87h-5.74l2.87-2.87M360.5,286.55l-3.47,3.47h6.95l-3.47-3.47h0Z"/>
    </g>
    <g>
      <path d="M353.5,283.5v6h-6v-6h6M354,283h-7v7h7v-7h0Z"/>
      <path d="M350.5,286.9l2.87,2.87h-5.74l2.87-2.87M350.5,286.55l-3.47,3.47h6.95l-3.47-3.47h0Z"/>
    </g>
    <g>
      <path d="M343.5,283.5v6h-6v-6h6M344,283h-7v7h7v-7h0Z"/>
      <path d="M340.5,286.9l2.87,2.87h-5.74l2.87-2.87M340.5,286.55l-3.47,3.47h6.95l-3.47-3.47h0Z"/>
    </g>
    <g>
      <path d="M333.5,283.5v6h-6v-6h6M334,283h-7v7h7v-7h0Z"/>
      <path d="M330.5,286.9l2.87,2.87h-5.74l2.87-2.87M330.5,286.55l-3.47,3.47h6.95l-3.47-3.47h0Z"/>
    </g>
    <g>
      <path d="M323.5,283.5v6h-6v-6h6M324,283h-7v7h7v-7h0Z"/>
      <path d="M320.5,286.9l2.87,2.87h-5.74l2.87-2.87M320.5,286.55l-3.47,3.47h6.95l-3.47-3.47h0Z"/>
    </g>
    <g>
      <path d="M313.5,283.5v6h-6v-6h6M314,283h-7v7h7v-7h0Z"/>
      <path d="M310.5,286.9l2.87,2.87h-5.74l2.87-2.87M310.5,286.55l-3.47,3.47h6.95l-3.47-3.47h0Z"/>
    </g>
    <g>
      <path d="M303.5,283.5v6h-6v-6h6M304,283h-7v7h7v-7h0Z"/>
      <path d="M300.5,286.9l2.87,2.87h-5.74l2.87-2.87M300.5,286.55l-3.47,3.47h6.95l-3.47-3.47h0Z"/>
    </g>
    <g>
      <path d="M293.5,283.5v6h-6v-6h6M294,283h-7v7h7v-7h0Z"/>
      <path d="M290.5,286.9l2.87,2.87h-5.74l2.87-2.87M290.5,286.55l-3.47,3.47h6.95l-3.47-3.47h0Z"/>
    </g>
    <g>
      <path d="M373.5,283.5v6h-6v-6h6M374,283h-7v7h7v-7h0Z"/>
      <path d="M370.5,286.9l2.87,2.87h-5.74l2.87-2.87M370.5,286.55l-3.47,3.47h6.95l-3.47-3.47h0Z"/>
    </g>
    <g>
      <path d="M383.5,283.5v6h-6v-6h6M384,283h-7v7h7v-7h0Z"/>
      <path d="M380.5,286.9l2.87,2.87h-5.74l2.87-2.87M380.5,286.55l-3.47,3.47h6.95l-3.47-3.47h0Z"/>
    </g>
    <g>
      <path d="M393.5,283.5v6h-6v-6h6M394,283h-7v7h7v-7h0Z"/>
      <path d="M390.5,286.9l2.87,2.87h-5.74l2.87-2.87M390.5,286.55l-3.47,3.47h6.95l-3.47-3.47h0Z"/>
    </g>
    <g>
      <path d="M403.5,283.5v6h-6v-6h6M404,283h-7v7h7v-7h0Z"/>
      <path d="M400.5,286.9l2.87,2.87h-5.74l2.87-2.87M400.5,286.55l-3.47,3.47h6.95l-3.47-3.47h0Z"/>
    </g>
    <g>
      <path d="M413.5,283.5v6h-6v-6h6M414,283h-7v7h7v-7h0Z"/>
      <path d="M410.5,286.9l2.87,2.87h-5.74l2.87-2.87M410.5,286.55l-3.47,3.47h6.95l-3.47-3.47h0Z"/>
    </g>
    <g>
      <path d="M423.5,283.5v6h-6v-6h6M424,283h-7v7h7v-7h0Z"/>
      <path d="M420.5,286.9l2.87,2.87h-5.74l2.87-2.87M420.5,286.55l-3.47,3.47h6.95l-3.47-3.47h0Z"/>
    </g>
    <g>
      <path d="M433.5,283.5v6h-6v-6h6M434,283h-7v7h7v-7h0Z"/>
      <path d="M430.5,286.9l2.87,2.87h-5.74l2.87-2.87M430.5,286.55l-3.47,3.47h6.95l-3.47-3.47h0Z"/>
    </g>
    <g>
      <path class="st0" d="M390.04,263c0,.17,0,.33,0,.5"/>
      <path class="st44" d="M389.93,265.52c-1.28,15.39-14.18,27.48-29.9,27.48s-29.17-12.62-29.96-28.49"/>
      <path class="st0" d="M330.04,263.5c0-.17,0-.33,0-.5"/>
    </g>
    <g>
      <path class="st45" d="M395.04,263c0,.17,0,.33,0,.5"/>
      <path class="st27" d="M394.95,265.48c-1.27,18.17-16.42,32.52-34.91,32.52s-34.19-14.87-34.97-33.51"/>
      <path class="st45" d="M325.04,263.5c0-.17,0-.33,0-.5"/>
    </g>
    <g>
      <path class="st0" d="M400.04,263c0,.17,0,.33,0,.5"/>
      <path class="st48" d="M399.96,265.49c-1.29,20.93-18.67,37.51-39.92,37.51s-39.18-17.1-39.97-38.5"/>
      <path class="st0" d="M320.04,263.5c0-.17,0-.33,0-.5"/>
    </g>
    <g>
      <path class="st67" d="M405.04,263c0,.17,0,.33,0,.5"/>
      <path class="st58" d="M404.97,265.5c-1.3,23.69-20.92,42.5-44.93,42.5s-44.18-19.34-44.98-43.5"/>
      <path class="st67" d="M315.04,263.5c0-.17,0-.33,0-.5"/>
    </g>
    <g>
      <path class="st0" d="M410.04,263c0,.17,0,.33,0,.5"/>
      <path class="st56" d="M409.98,265.51c-1.31,26.45-23.17,47.49-49.94,47.49s-49.18-21.57-49.98-48.49"/>
      <path class="st0" d="M310.04,263.5c0-.17,0-.33,0-.5"/>
    </g>
    <g>
      <path class="st68" d="M415.04,263c0,.17,0,.33,0,.5"/>
      <path class="st10" d="M414.98,265.49c-1.3,29.22-25.4,52.51-54.94,52.51s-54.19-23.82-54.98-53.5"/>
      <path class="st68" d="M305.04,263.5c0-.17,0-.33,0-.5"/>
    </g>
    <g>
      <path class="st0" d="M420.04,263c0,.17,0,.33,0,.5"/>
      <path class="st33" d="M419.99,265.49c-1.31,31.98-27.65,57.51-59.95,57.51s-59.19-26.06-59.98-58.51"/>
      <path class="st0" d="M300.04,263.5c0-.17,0-.33,0-.5"/>
    </g>
    <g class="st78">
      <g>
        <line class="st42" x1="360.04" y1="273" x2="360.04" y2="309.03"/>
        <polygon points="353.81 307.21 360.04 318 366.27 307.21 353.81 307.21"/>
      </g>
    </g>
    <g class="st78">
      <g>
        <line class="st42" x1="352.96" y1="270.1" x2="327.48" y2="295.58"/>
        <polygon points="324.36 289.88 321.14 301.92 333.18 298.69 324.36 289.88"/>
      </g>
    </g>
    <g class="st78">
      <g>
        <line class="st42" x1="367.1" y1="270.04" x2="392.58" y2="295.52"/>
        <polygon points="386.88 298.64 398.92 301.86 395.69 289.82 386.88 298.64"/>
      </g>
    </g>
    <g>
      <path class="st23" d="M375.04,263c0,.17,0,.33,0,.5"/>
      <path class="st24" d="M374.84,265.45c-1.17,7.12-7.35,12.55-14.8,12.55s-14.18-5.93-14.93-13.52"/>
      <path class="st23" d="M345.05,263.5c0-.17,0-.33,0-.5"/>
    </g>
    <g>
      <path class="st0" d="M380.04,263c0,.17,0,.33,0,.5"/>
      <path class="st11" d="M379.89,265.49c-1.23,9.87-9.64,17.51-19.85,17.51s-19.18-8.16-19.94-18.5"/>
      <path class="st0" d="M340.04,263.5c0-.17,0-.33,0-.5"/>
    </g>
    <g>
      <path class="st63" d="M385.04,263c0,.17,0,.33,0,.5"/>
      <path class="st72" d="M384.91,265.51c-1.26,12.63-11.92,22.49-24.88,22.49s-24.18-10.39-24.96-23.49"/>
      <path class="st63" d="M335.04,263.5c0-.17,0-.33,0-.5"/>
    </g>
    <g>
      <path class="st23" d="M425.04,263c0,.17,0,.33,0,.5"/>
      <path class="st7" d="M424.99,265.5c-1.31,34.74-29.89,62.5-64.95,62.5s-64.19-28.3-64.98-63.51"/>
      <path class="st23" d="M295.04,263.5c0-.17,0-.33,0-.5"/>
    </g>
    <g>
      <path class="st0" d="M430.04,263c0,.17,0,.33,0,.5"/>
      <path class="st12" d="M429.99,265.51c-1.32,37.5-32.14,67.49-69.96,67.49s-69.19-30.54-69.98-68.51"/>
      <path class="st0" d="M290.04,263.5c0-.17,0-.33,0-.5"/>
    </g>
    <g>
      <path class="st49" d="M435.04,263c0,.17,0,.33,0,.5"/>
      <path class="st62" d="M435,265.49c-1.31,40.27-34.37,72.51-74.96,72.51s-74.19-32.77-74.99-73.51"/>
      <path class="st49" d="M285.04,263.5c0-.17,0-.33,0-.5"/>
    </g>
  </g>
  <g id="speakers_2">
    <g>
      <path d="M523.5,283.5v6h-6v-6h6M524,283h-7v7h7v-7h0Z"/>
      <path d="M520.5,286.9l2.87,2.87h-5.74l2.87-2.87M520.5,286.55l-3.47,3.47h6.95l-3.47-3.47h0Z"/>
    </g>
    <g>
      <path d="M513.5,283.5v6h-6v-6h6M514,283h-7v7h7v-7h0Z"/>
      <path d="M510.5,286.9l2.87,2.87h-5.74l2.87-2.87M510.5,286.55l-3.47,3.47h6.95l-3.47-3.47h0Z"/>
    </g>
    <g>
      <path d="M503.5,283.5v6h-6v-6h6M504,283h-7v7h7v-7h0Z"/>
      <path d="M500.5,286.9l2.87,2.87h-5.74l2.87-2.87M500.5,286.55l-3.47,3.47h6.95l-3.47-3.47h0Z"/>
    </g>
    <g>
      <path d="M493.5,283.5v6h-6v-6h6M494,283h-7v7h7v-7h0Z"/>
      <path d="M490.5,286.9l2.87,2.87h-5.74l2.87-2.87M490.5,286.55l-3.47,3.47h6.95l-3.47-3.47h0Z"/>
    </g>
    <g>
      <path d="M483.5,283.5v6h-6v-6h6M484,283h-7v7h7v-7h0Z"/>
      <path d="M480.5,286.9l2.87,2.87h-5.74l2.87-2.87M480.5,286.55l-3.47,3.47h6.95l-3.47-3.47h0Z"/>
    </g>
    <g>
      <path d="M473.5,283.5v6h-6v-6h6M474,283h-7v7h7v-7h0Z"/>
      <path d="M470.5,286.9l2.87,2.87h-5.74l2.87-2.87M470.5,286.55l-3.47,3.47h6.95l-3.47-3.47h0Z"/>
    </g>
    <g>
      <path d="M463.5,283.5v6h-6v-6h6M464,283h-7v7h7v-7h0Z"/>
      <path d="M460.5,286.9l2.87,2.87h-5.74l2.87-2.87M460.5,286.55l-3.47,3.47h6.95l-3.47-3.47h0Z"/>
    </g>
    <g>
      <path d="M453.5,283.5v6h-6v-6h6M454,283h-7v7h7v-7h0Z"/>
      <path d="M450.5,286.9l2.87,2.87h-5.74l2.87-2.87M450.5,286.55l-3.47,3.47h6.95l-3.47-3.47h0Z"/>
    </g>
    <g>
      <path d="M533.5,283.5v6h-6v-6h6M534,283h-7v7h7v-7h0Z"/>
      <path d="M530.5,286.9l2.87,2.87h-5.74l2.87-2.87M530.5,286.55l-3.47,3.47h6.95l-3.47-3.47h0Z"/>
    </g>
    <g>
      <path d="M543.5,283.5v6h-6v-6h6M544,283h-7v7h7v-7h0Z"/>
      <path d="M540.5,286.9l2.87,2.87h-5.74l2.87-2.87M540.5,286.55l-3.47,3.47h6.95l-3.47-3.47h0Z"/>
    </g>
    <g>
      <path d="M553.5,283.5v6h-6v-6h6M554,283h-7v7h7v-7h0Z"/>
      <path d="M550.5,286.9l2.87,2.87h-5.74l2.87-2.87M550.5,286.55l-3.47,3.47h6.95l-3.47-3.47h0Z"/>
    </g>
    <g>
      <path d="M563.5,283.5v6h-6v-6h6M564,283h-7v7h7v-7h0Z"/>
      <path d="M560.5,286.9l2.87,2.87h-5.74l2.87-2.87M560.5,286.55l-3.47,3.47h6.95l-3.47-3.47h0Z"/>
    </g>
    <g>
      <path d="M573.5,283.5v6h-6v-6h6M574,283h-7v7h7v-7h0Z"/>
      <path d="M570.5,286.9l2.87,2.87h-5.74l2.87-2.87M570.5,286.55l-3.47,3.47h6.95l-3.47-3.47h0Z"/>
    </g>
    <g>
      <path d="M583.5,283.5v6h-6v-6h6M584,283h-7v7h7v-7h0Z"/>
      <path d="M580.5,286.9l2.87,2.87h-5.74l2.87-2.87M580.5,286.55l-3.47,3.47h6.95l-3.47-3.47h0Z"/>
    </g>
    <g>
      <path d="M593.5,283.5v6h-6v-6h6M594,283h-7v7h7v-7h0Z"/>
      <path d="M590.5,286.9l2.87,2.87h-5.74l2.87-2.87M590.5,286.55l-3.47,3.47h6.95l-3.47-3.47h0Z"/>
    </g>
    <g class="st78">
      <g>
        <line class="st42" x1="520.04" y1="273" x2="520.04" y2="309.03"/>
        <polygon points="513.81 307.21 520.04 318 526.27 307.21 513.81 307.21"/>
      </g>
    </g>
    <g class="st78">
      <g>
        <line class="st42" x1="512.96" y1="270.1" x2="487.48" y2="295.58"/>
        <polygon points="484.36 289.88 481.14 301.92 493.18 298.69 484.36 289.88"/>
      </g>
    </g>
    <g class="st78">
      <g>
        <line class="st42" x1="527.1" y1="270.04" x2="552.58" y2="295.52"/>
        <polygon points="546.88 298.64 558.92 301.86 555.69 289.82 546.88 298.64"/>
      </g>
    </g>
    <g id="_x37_">
      <g>
        <path class="st0" d="M517.5,291.45c.09.14.18.28.28.41"/>
        <path class="st59" d="M518.63,292.63c.54.35,1.18.55,1.87.55s1.38-.22,1.93-.59"/>
        <path class="st0" d="M522.88,292.23c.12-.11.23-.24.34-.37"/>
      </g>
      <g>
        <path class="st45" d="M513.16,293.95c.08.14.17.29.26.42"/>
        <path class="st43" d="M514,295.14c1.56,1.86,3.89,3.04,6.5,3.04s4.93-1.17,6.49-3.01"/>
        <path class="st45" d="M527.29,294.79c.1-.13.2-.27.29-.41"/>
      </g>
      <g>
        <path class="st0" d="M508.84,296.46c.08.14.17.29.26.43"/>
        <path class="st21" d="M509.65,297.7c2.46,3.32,6.4,5.48,10.85,5.48s8.38-2.16,10.84-5.47"/>
        <path class="st0" d="M531.63,297.3c.09-.14.19-.28.28-.42"/>
      </g>
      <g>
        <path class="st67" d="M504.51,298.96c.08.14.17.29.26.43"/>
        <path class="st51" d="M505.32,300.22c3.34,4.8,8.89,7.95,15.18,7.95s11.84-3.15,15.18-7.95"/>
        <path class="st67" d="M535.96,299.81c.09-.14.18-.28.27-.42"/>
      </g>
      <g>
        <path class="st0" d="M500.17,301.47c.08.14.17.29.26.43"/>
        <path class="st19" d="M500.97,302.75c4.22,6.29,11.39,10.43,19.53,10.43s15.31-4.14,19.53-10.43"/>
        <path class="st0" d="M540.31,302.32c.09-.14.18-.28.26-.42"/>
      </g>
      <g>
        <path class="st68" d="M495.85,303.97c.08.14.17.29.25.43"/>
        <path class="st55" d="M496.62,305.23c5.09,7.79,13.88,12.95,23.88,12.95s18.79-5.15,23.88-12.94"/>
        <path class="st68" d="M544.64,304.83c.09-.14.18-.28.26-.43"/>
      </g>
      <g>
        <path class="st0" d="M491.52,306.47c.08.14.17.29.25.43"/>
        <path class="st9" d="M492.3,307.75c5.96,9.28,16.36,15.43,28.2,15.43s22.25-6.15,28.21-15.42"/>
        <path class="st0" d="M548.97,307.33c.09-.14.17-.28.26-.43"/>
      </g>
      <g>
        <path class="st23" d="M487.19,308.98c.08.14.17.29.25.43"/>
        <path class="st3" d="M487.97,310.26c6.83,10.77,18.84,17.92,32.53,17.92s25.71-7.15,32.54-17.92"/>
        <path class="st23" d="M553.3,309.84c.09-.14.17-.28.26-.43"/>
      </g>
      <g>
        <path class="st0" d="M482.86,311.48c.08.14.17.29.25.43"/>
        <path class="st52" d="M483.64,312.77c7.69,12.26,21.32,20.41,36.86,20.41s29.17-8.15,36.86-20.41"/>
        <path class="st0" d="M557.63,312.34c.09-.14.17-.28.26-.43"/>
      </g>
      <g>
        <path class="st49" d="M478.53,313.98c.08.14.17.29.25.43"/>
        <path class="st50" d="M479.31,315.27c8.56,13.75,23.8,22.9,41.19,22.9s32.63-9.16,41.19-22.9"/>
        <path class="st49" d="M561.96,314.84c.09-.14.17-.29.26-.43"/>
      </g>
    </g>
    <g id="_x33_">
      <g>
        <path class="st0" d="M529.32,290.65c.11.13.24.24.38.32"/>
        <path class="st74" d="M530.2,291.16c.08.01.17.02.26.02.18,0,.35-.03.51-.09"/>
        <path class="st0" d="M531.2,290.97c.14-.09.27-.19.38-.32"/>
      </g>
      <g>
        <path class="st45" d="M524.98,293.17c.09.14.18.28.28.41"/>
        <path class="st22" d="M525.87,294.28c1.17,1.17,2.79,1.9,4.59,1.9,1.96,0,3.71-.87,4.9-2.24"/>
        <path class="st45" d="M535.65,293.58c.1-.13.2-.27.28-.41"/>
      </g>
      <g>
        <path class="st0" d="M520.65,295.67c.09.14.18.28.27.42"/>
        <path class="st35" d="M521.5,296.88c2.11,2.62,5.33,4.3,8.95,4.3s7.16-1.85,9.25-4.69"/>
        <path class="st0" d="M539.99,296.09c.09-.14.18-.28.27-.42"/>
      </g>
      <g>
        <path class="st67" d="M516.33,298.17c.09.14.17.28.26.42"/>
        <path class="st60" d="M517.16,299.42c3,4.1,7.83,6.76,13.3,6.76s10.61-2.84,13.59-7.17"/>
        <path class="st67" d="M544.32,298.6c.09-.14.18-.28.26-.42"/>
      </g>
      <g>
        <path class="st0" d="M512,300.67c.09.14.17.29.26.43"/>
        <path class="st39" d="M512.82,301.94c3.88,5.58,10.32,9.24,17.63,9.24s14.07-3.84,17.92-9.65"/>
        <path class="st0" d="M548.65,301.1c.09-.14.18-.28.26-.43"/>
      </g>
      <g>
        <path class="st68" d="M507.66,303.19c.09.14.17.29.26.43"/>
        <path class="st70" d="M508.47,304.47c4.76,7.06,12.83,11.71,21.99,11.71s17.55-4.84,22.27-12.14"/>
        <path class="st68" d="M552.99,303.61c.09-.14.17-.28.26-.43"/>
      </g>
      <g>
        <path class="st0" d="M503.33,305.69c.08.14.17.29.26.43"/>
        <path class="st31" d="M504.12,306.95c5.63,8.57,15.32,14.23,26.34,14.23s21.02-5.85,26.61-14.65"/>
        <path class="st0" d="M557.32,306.12c.09-.14.17-.28.26-.43"/>
      </g>
      <g>
        <path class="st23" d="M499,308.19c.08.14.17.29.26.43"/>
        <path class="st66" d="M499.79,309.47c6.5,10.05,17.8,16.71,30.67,16.71s24.48-6.84,30.93-17.13"/>
        <path class="st23" d="M561.65,308.62c.09-.14.17-.29.26-.43"/>
      </g>
      <g>
        <path class="st0" d="M494.67,310.69c.08.14.17.29.26.43"/>
        <path class="st28" d="M495.46,311.98c7.37,11.54,20.28,19.2,35,19.2s27.94-7.85,35.26-19.63"/>
        <path class="st0" d="M565.98,311.12c.09-.14.17-.29.26-.43"/>
      </g>
      <g>
        <path class="st49" d="M490.35,313.2c.08.14.17.29.26.43"/>
        <path class="st8" d="M491.13,314.48c8.24,13.03,22.77,21.69,39.32,21.69s31.4-8.85,39.59-22.12"/>
        <path class="st49" d="M570.31,313.63c.09-.14.17-.29.26-.43"/>
      </g>
    </g>
    <g id="_x35_">
      <g>
        <path class="st0" d="M549.32,290.65c.11.13.24.24.38.32"/>
        <path class="st74" d="M550.2,291.16c.08.01.17.02.26.02.18,0,.35-.03.51-.09"/>
        <path class="st0" d="M551.2,290.97c.14-.09.27-.19.38-.32"/>
      </g>
      <g>
        <path class="st67" d="M544.98,293.17c.09.14.18.28.28.41"/>
        <path class="st29" d="M545.87,294.28c1.17,1.17,2.79,1.9,4.59,1.9,1.96,0,3.71-.87,4.9-2.24"/>
        <path class="st67" d="M555.65,293.58c.1-.13.2-.27.28-.41"/>
      </g>
      <g>
        <path class="st0" d="M540.65,295.67c.09.14.18.28.27.42"/>
        <path class="st35" d="M541.5,296.88c2.11,2.62,5.33,4.3,8.95,4.3s7.16-1.85,9.25-4.69"/>
        <path class="st0" d="M559.99,296.09c.09-.14.18-.28.27-.42"/>
      </g>
      <g>
        <path class="st68" d="M536.33,298.17c.09.14.17.28.26.42"/>
        <path class="st73" d="M537.16,299.42c3,4.1,7.83,6.76,13.3,6.76s10.61-2.84,13.59-7.17"/>
        <path class="st68" d="M564.32,298.6c.09-.14.18-.28.26-.42"/>
      </g>
      <g>
        <path class="st0" d="M532,300.67c.09.14.17.29.26.43"/>
        <path class="st39" d="M532.82,301.94c3.88,5.58,10.32,9.24,17.63,9.24s14.07-3.84,17.92-9.65"/>
        <path class="st0" d="M568.65,301.1c.09-.14.18-.28.26-.43"/>
      </g>
      <g>
        <path class="st23" d="M527.66,303.19c.09.14.17.29.26.43"/>
        <path class="st30" d="M528.47,304.47c4.76,7.06,12.83,11.71,21.99,11.71s17.55-4.84,22.27-12.14"/>
        <path class="st23" d="M572.99,303.61c.09-.14.17-.28.26-.43"/>
      </g>
      <g>
        <path class="st0" d="M523.33,305.69c.08.14.17.29.26.43"/>
        <path class="st31" d="M524.12,306.95c5.63,8.57,15.32,14.23,26.34,14.23s21.02-5.85,26.61-14.65"/>
        <path class="st0" d="M577.32,306.12c.09-.14.17-.28.26-.43"/>
      </g>
      <g>
        <path class="st49" d="M519,308.19c.08.14.17.29.26.43"/>
        <path class="st64" d="M519.79,309.47c6.5,10.05,17.8,16.71,30.67,16.71s24.48-6.84,30.93-17.13"/>
        <path class="st49" d="M581.65,308.62c.09-.14.17-.29.26-.43"/>
      </g>
    </g>
    <g id="_x33_1" data-name="_x33_">
      <g>
        <path class="st45" d="M538.36,290.95c.09.14.18.28.3.4"/>
        <path class="st32" d="M539.65,292.03c.26.1.55.15.85.15.33,0,.65-.07.94-.19"/>
        <path class="st45" d="M541.97,291.69c.13-.1.26-.21.37-.34"/>
      </g>
      <g>
        <path class="st0" d="M534.03,293.45c.08.14.17.29.27.42"/>
        <path class="st40" d="M534.87,294.62c1.37,1.57,3.38,2.56,5.63,2.56s4.24-.98,5.62-2.53"/>
        <path class="st0" d="M546.42,294.29c.1-.13.2-.27.29-.4"/>
      </g>
      <g>
        <path class="st67" d="M529.7,295.96c.08.14.17.29.26.43"/>
        <path class="st57" d="M530.52,297.19c2.28,3.03,5.9,4.99,9.98,4.99s7.69-1.96,9.97-4.98"/>
        <path class="st67" d="M550.76,296.8c.1-.14.19-.28.28-.42"/>
      </g>
      <g>
        <path class="st0" d="M525.38,298.46c.08.14.17.29.26.43"/>
        <path class="st5" d="M526.19,299.72c3.16,4.51,8.39,7.46,14.31,7.46s11.14-2.95,14.31-7.46"/>
        <path class="st0" d="M555.09,299.31c.09-.14.18-.28.27-.42"/>
      </g>
      <g>
        <path class="st68" d="M521.04,300.97c.08.14.17.29.26.43"/>
        <path class="st26" d="M521.84,302.25c4.04,5.99,10.89,9.93,18.66,9.93s14.62-3.94,18.66-9.93"/>
        <path class="st68" d="M559.44,301.82c.09-.14.18-.28.27-.42"/>
      </g>
      <g>
        <path class="st0" d="M516.71,303.47c.08.14.17.29.26.43"/>
        <path class="st18" d="M517.51,304.76c4.91,7.48,13.37,12.42,22.99,12.42s18.09-4.94,23-12.43"/>
        <path class="st0" d="M563.78,304.33c.09-.14.18-.28.26-.43"/>
      </g>
      <g>
        <path class="st23" d="M512.38,305.97c.08.14.17.29.25.43"/>
        <path class="st71" d="M513.16,307.24c5.78,8.98,15.86,14.93,27.34,14.93s21.56-5.95,27.34-14.93"/>
        <path class="st23" d="M568.11,306.83c.09-.14.18-.28.26-.43"/>
      </g>
      <g>
        <path class="st0" d="M508.06,308.48c.08.14.17.29.25.43"/>
        <path class="st13" d="M508.83,309.76c6.65,10.47,18.34,17.42,31.67,17.42s25.02-6.95,31.67-17.42"/>
        <path class="st0" d="M572.43,309.34c.09-.14.17-.28.26-.43"/>
      </g>
      <g>
        <path class="st49" d="M503.73,310.98c.08.14.17.29.25.43"/>
        <path class="st54" d="M504.51,312.27c7.52,11.96,20.82,19.91,35.99,19.91s28.48-7.95,36-19.91"/>
        <path class="st49" d="M576.76,311.84c.09-.14.17-.28.26-.43"/>
      </g>
    </g>
    <g>
      <g>
        <path class="st0" d="M558.48,290.95c.09.14.18.28.3.4"/>
        <path class="st4" d="M559.78,292.03c.26.1.55.15.85.15.33,0,.65-.07.94-.19"/>
        <path class="st0" d="M562.1,291.69c.13-.1.26-.21.37-.34"/>
      </g>
      <g>
        <path class="st68" d="M554.15,293.45c.08.14.17.29.27.42"/>
        <path class="st25" d="M554.99,294.62c1.37,1.57,3.38,2.56,5.63,2.56s4.24-.98,5.62-2.53"/>
        <path class="st68" d="M566.54,294.29c.1-.13.2-.27.29-.4"/>
      </g>
      <g>
        <path class="st0" d="M549.83,295.96c.08.14.17.29.26.43"/>
        <path class="st47" d="M550.65,297.19c2.28,3.03,5.9,4.99,9.98,4.99s7.69-1.96,9.97-4.98"/>
        <path class="st0" d="M570.89,296.8c.1-.14.19-.28.28-.42"/>
      </g>
      <g>
        <path class="st34" d="M545.5,298.46c.08.14.17.29.26.43"/>
        <path class="st16" d="M546.31,299.72c3.16,4.51,8.39,7.46,14.31,7.46s11.14-2.95,14.31-7.46"/>
        <path class="st34" d="M575.22,299.31c.09-.14.18-.28.27-.42"/>
      </g>
      <g>
        <path class="st0" d="M541.16,300.97c.08.14.17.29.26.43"/>
        <path class="st38" d="M541.97,302.25c4.04,5.99,10.89,9.93,18.66,9.93s14.62-3.94,18.66-9.93"/>
        <path class="st0" d="M579.57,301.82c.09-.14.18-.28.27-.42"/>
      </g>
      <g>
        <path class="st49" d="M536.84,303.47c.08.14.17.29.26.43"/>
        <path class="st61" d="M537.63,304.76c4.91,7.48,13.37,12.42,22.99,12.42s18.09-4.94,23-12.43"/>
        <path class="st49" d="M583.9,304.33c.09-.14.18-.28.26-.43"/>
      </g>
    </g>
    <g>
      <g>
        <path class="st0" d="M565.89,292.67c.09.14.19.28.29.41"/>
        <path class="st53" d="M566.94,293.87c.96.82,2.2,1.31,3.56,1.31,1.56,0,2.96-.65,3.96-1.69"/>
        <path class="st0" d="M574.82,293.07c.1-.13.2-.27.29-.41"/>
      </g>
      <g>
        <path class="st23" d="M561.56,295.17c.09.14.18.28.27.42"/>
        <path class="st20" d="M562.42,296.36c1.92,2.33,4.83,3.81,8.08,3.81,3.43,0,6.47-1.65,8.38-4.19"/>
        <path class="st23" d="M579.17,295.59c.09-.14.18-.28.27-.42"/>
      </g>
      <g>
        <path class="st0" d="M557.24,297.67c.09.14.17.28.27.42"/>
        <path class="st65" d="M558.07,298.91c2.82,3.8,7.33,6.27,12.43,6.27s9.92-2.64,12.72-6.67"/>
        <path class="st0" d="M583.5,298.09c.09-.14.18-.28.27-.42"/>
      </g>
      <g>
        <path class="st49" d="M552.91,300.17c.09.14.17.29.26.43"/>
        <path class="st36" d="M553.73,301.44c3.71,5.28,9.83,8.74,16.77,8.74s13.38-3.64,17.05-9.16"/>
        <path class="st49" d="M587.83,300.6c.09-.14.18-.28.26-.43"/>
      </g>
    </g>
    <g>
      <g>
        <path class="st0" d="M577.62,291.45c.09.14.18.28.28.41"/>
        <path class="st41" d="M579.8,293.08c.26.06.54.1.82.1.51,0,.99-.11,1.43-.31"/>
        <path class="st0" d="M583,292.23c.12-.11.23-.24.34-.37"/>
      </g>
      <g>
        <path class="st49" d="M573.29,293.95c.08.14.17.29.26.42"/>
        <path class="st37" d="M574.78,295.84c1.52,1.45,3.58,2.34,5.85,2.34,2.43,0,4.63-1.02,6.17-2.66"/>
        <path class="st49" d="M587.41,294.79c.1-.13.2-.27.29-.41"/>
      </g>
    </g>
    <g id="_x33_2" data-name="_x33_">
      <g>
        <path class="st0" d="M511.68,290.65c-.11.13-.24.24-.38.32"/>
        <path class="st74" d="M510.8,291.16c-.08.01-.17.02-.26.02-.18,0-.35-.03-.51-.09"/>
        <path class="st0" d="M509.8,290.97c-.14-.09-.27-.19-.38-.32"/>
      </g>
      <g>
        <path class="st45" d="M516.02,293.17c-.09.14-.18.28-.28.41"/>
        <path class="st22" d="M515.13,294.28c-1.17,1.17-2.79,1.9-4.59,1.9-1.96,0-3.71-.87-4.9-2.24"/>
        <path class="st45" d="M505.35,293.58c-.1-.13-.2-.27-.28-.41"/>
      </g>
      <g>
        <path class="st0" d="M520.35,295.67c-.09.14-.18.28-.27.42"/>
        <path class="st35" d="M519.5,296.88c-2.11,2.62-5.33,4.3-8.95,4.3s-7.16-1.85-9.25-4.69"/>
        <path class="st0" d="M501.01,296.09c-.09-.14-.18-.28-.27-.42"/>
      </g>
      <g>
        <path class="st67" d="M524.67,298.17c-.09.14-.17.28-.26.42"/>
        <path class="st60" d="M523.84,299.42c-3,4.1-7.83,6.76-13.3,6.76s-10.61-2.84-13.59-7.17"/>
        <path class="st67" d="M496.68,298.6c-.09-.14-.18-.28-.26-.42"/>
      </g>
      <g>
        <path class="st0" d="M529,300.67c-.09.14-.17.29-.26.43"/>
        <path class="st39" d="M528.18,301.94c-3.88,5.58-10.32,9.24-17.63,9.24s-14.07-3.84-17.92-9.65"/>
        <path class="st0" d="M492.35,301.1c-.09-.14-.18-.28-.26-.43"/>
      </g>
      <g>
        <path class="st68" d="M533.34,303.19c-.09.14-.17.29-.26.43"/>
        <path class="st70" d="M532.53,304.47c-4.76,7.06-12.83,11.71-21.99,11.71s-17.55-4.84-22.27-12.14"/>
        <path class="st68" d="M488.01,303.61c-.09-.14-.17-.28-.26-.43"/>
      </g>
      <g>
        <path class="st0" d="M537.67,305.69c-.08.14-.17.29-.26.43"/>
        <path class="st31" d="M536.88,306.95c-5.63,8.57-15.32,14.23-26.34,14.23s-21.02-5.85-26.61-14.65"/>
        <path class="st0" d="M483.68,306.12c-.09-.14-.17-.28-.26-.43"/>
      </g>
      <g>
        <path class="st23" d="M542,308.19c-.08.14-.17.29-.26.43"/>
        <path class="st66" d="M541.21,309.47c-6.5,10.05-17.8,16.71-30.67,16.71s-24.48-6.84-30.93-17.13"/>
        <path class="st23" d="M479.35,308.62c-.09-.14-.17-.29-.26-.43"/>
      </g>
      <g>
        <path class="st0" d="M546.33,310.69c-.08.14-.17.29-.26.43"/>
        <path class="st28" d="M545.54,311.98c-7.37,11.54-20.28,19.2-35,19.2s-27.94-7.85-35.26-19.63"/>
        <path class="st0" d="M475.02,311.12c-.09-.14-.17-.29-.26-.43"/>
      </g>
      <g>
        <path class="st49" d="M550.65,313.2c-.08.14-.17.29-.26.43"/>
        <path class="st8" d="M549.87,314.48c-8.24,13.03-22.77,21.69-39.32,21.69s-31.4-8.85-39.59-22.12"/>
        <path class="st49" d="M470.69,313.63c-.09-.14-.17-.29-.26-.43"/>
      </g>
    </g>
    <g id="_x35_1" data-name="_x35_">
      <g>
        <path class="st0" d="M491.68,290.65c-.11.13-.24.24-.38.32"/>
        <path class="st74" d="M490.8,291.16c-.08.01-.17.02-.26.02-.18,0-.35-.03-.51-.09"/>
        <path class="st0" d="M489.8,290.97c-.14-.09-.27-.19-.38-.32"/>
      </g>
      <g>
        <path class="st67" d="M496.02,293.17c-.09.14-.18.28-.28.41"/>
        <path class="st29" d="M495.13,294.28c-1.17,1.17-2.79,1.9-4.59,1.9-1.96,0-3.71-.87-4.9-2.24"/>
        <path class="st67" d="M485.35,293.58c-.1-.13-.2-.27-.28-.41"/>
      </g>
      <g>
        <path class="st0" d="M500.35,295.67c-.09.14-.18.28-.27.42"/>
        <path class="st35" d="M499.5,296.88c-2.11,2.62-5.33,4.3-8.95,4.3s-7.16-1.85-9.25-4.69"/>
        <path class="st0" d="M481.01,296.09c-.09-.14-.18-.28-.27-.42"/>
      </g>
      <g>
        <path class="st68" d="M504.67,298.17c-.09.14-.17.28-.26.42"/>
        <path class="st73" d="M503.84,299.42c-3,4.1-7.83,6.76-13.3,6.76s-10.61-2.84-13.59-7.17"/>
        <path class="st68" d="M476.68,298.6c-.09-.14-.18-.28-.26-.42"/>
      </g>
      <g>
        <path class="st0" d="M509,300.67c-.09.14-.17.29-.26.43"/>
        <path class="st39" d="M508.18,301.94c-3.88,5.58-10.32,9.24-17.63,9.24s-14.07-3.84-17.92-9.65"/>
        <path class="st0" d="M472.35,301.1c-.09-.14-.18-.28-.26-.43"/>
      </g>
      <g>
        <path class="st23" d="M513.34,303.19c-.09.14-.17.29-.26.43"/>
        <path class="st30" d="M512.53,304.47c-4.76,7.06-12.83,11.71-21.99,11.71s-17.55-4.84-22.27-12.14"/>
        <path class="st23" d="M468.01,303.61c-.09-.14-.17-.28-.26-.43"/>
      </g>
      <g>
        <path class="st0" d="M517.67,305.69c-.08.14-.17.29-.26.43"/>
        <path class="st31" d="M516.88,306.95c-5.63,8.57-15.32,14.23-26.34,14.23s-21.02-5.85-26.61-14.65"/>
        <path class="st0" d="M463.68,306.12c-.09-.14-.17-.28-.26-.43"/>
      </g>
      <g>
        <path class="st49" d="M522,308.19c-.08.14-.17.29-.26.43"/>
        <path class="st64" d="M521.21,309.47c-6.5,10.05-17.8,16.71-30.67,16.71s-24.48-6.84-30.93-17.13"/>
        <path class="st49" d="M459.35,308.62c-.09-.14-.17-.29-.26-.43"/>
      </g>
    </g>
    <g id="_x33_3" data-name="_x33_">
      <g>
        <path class="st45" d="M502.64,290.95c-.09.14-.18.28-.3.4"/>
        <path class="st32" d="M501.35,292.03c-.26.1-.55.15-.85.15-.33,0-.65-.07-.94-.19"/>
        <path class="st45" d="M499.03,291.69c-.13-.1-.26-.21-.37-.34"/>
      </g>
      <g>
        <path class="st0" d="M506.97,293.45c-.08.14-.17.29-.27.42"/>
        <path class="st40" d="M506.13,294.62c-1.37,1.57-3.38,2.56-5.63,2.56s-4.24-.98-5.62-2.53"/>
        <path class="st0" d="M494.58,294.29c-.1-.13-.2-.27-.29-.4"/>
      </g>
      <g>
        <path class="st67" d="M511.3,295.96c-.08.14-.17.29-.26.43"/>
        <path class="st57" d="M510.48,297.19c-2.28,3.03-5.9,4.99-9.98,4.99s-7.69-1.96-9.97-4.98"/>
        <path class="st67" d="M490.24,296.8c-.1-.14-.19-.28-.28-.42"/>
      </g>
      <g>
        <path class="st0" d="M515.62,298.46c-.08.14-.17.29-.26.43"/>
        <path class="st5" d="M514.81,299.72c-3.16,4.51-8.39,7.46-14.31,7.46s-11.14-2.95-14.31-7.46"/>
        <path class="st0" d="M485.91,299.31c-.09-.14-.18-.28-.27-.42"/>
      </g>
      <g>
        <path class="st68" d="M519.96,300.97c-.08.14-.17.29-.26.43"/>
        <path class="st26" d="M519.16,302.25c-4.04,5.99-10.89,9.93-18.66,9.93s-14.62-3.94-18.66-9.93"/>
        <path class="st68" d="M481.56,301.82c-.09-.14-.18-.28-.27-.42"/>
      </g>
      <g>
        <path class="st0" d="M524.29,303.47c-.08.14-.17.29-.26.43"/>
        <path class="st18" d="M523.49,304.76c-4.91,7.48-13.37,12.42-22.99,12.42s-18.09-4.94-23-12.43"/>
        <path class="st0" d="M477.22,304.33c-.09-.14-.18-.28-.26-.43"/>
      </g>
      <g>
        <path class="st23" d="M528.62,305.97c-.08.14-.17.29-.25.43"/>
        <path class="st71" d="M527.84,307.24c-5.78,8.98-15.86,14.93-27.34,14.93s-21.56-5.95-27.34-14.93"/>
        <path class="st23" d="M472.89,306.83c-.09-.14-.18-.28-.26-.43"/>
      </g>
      <g>
        <path class="st0" d="M532.94,308.48c-.08.14-.17.29-.25.43"/>
        <path class="st13" d="M532.17,309.76c-6.65,10.47-18.34,17.42-31.67,17.42s-25.02-6.95-31.67-17.42"/>
        <path class="st0" d="M468.57,309.34c-.09-.14-.17-.28-.26-.43"/>
      </g>
      <g>
        <path class="st49" d="M537.27,310.98c-.08.14-.17.29-.25.43"/>
        <path class="st54" d="M536.49,312.27c-7.52,11.96-20.82,19.91-35.99,19.91s-28.48-7.95-36-19.91"/>
        <path class="st49" d="M464.24,311.84c-.09-.14-.17-.28-.26-.43"/>
      </g>
    </g>
    <g>
      <g>
        <path class="st0" d="M482.52,290.95c-.09.14-.18.28-.3.4"/>
        <path class="st4" d="M481.22,292.03c-.26.1-.55.15-.85.15-.33,0-.65-.07-.94-.19"/>
        <path class="st0" d="M478.9,291.69c-.13-.1-.26-.21-.37-.34"/>
      </g>
      <g>
        <path class="st68" d="M486.85,293.45c-.08.14-.17.29-.27.42"/>
        <path class="st25" d="M486.01,294.62c-1.37,1.57-3.38,2.56-5.63,2.56s-4.24-.98-5.62-2.53"/>
        <path class="st68" d="M474.46,294.29c-.1-.13-.2-.27-.29-.4"/>
      </g>
      <g>
        <path class="st0" d="M491.17,295.96c-.08.14-.17.29-.26.43"/>
        <path class="st47" d="M490.35,297.19c-2.28,3.03-5.9,4.99-9.98,4.99s-7.69-1.96-9.97-4.98"/>
        <path class="st0" d="M470.11,296.8c-.1-.14-.19-.28-.28-.42"/>
      </g>
      <g>
        <path class="st34" d="M495.5,298.46c-.08.14-.17.29-.26.43"/>
        <path class="st16" d="M494.69,299.72c-3.16,4.51-8.39,7.46-14.31,7.46s-11.14-2.95-14.31-7.46"/>
        <path class="st34" d="M465.78,299.31c-.09-.14-.18-.28-.27-.42"/>
      </g>
      <g>
        <path class="st0" d="M499.84,300.97c-.08.14-.17.29-.26.43"/>
        <path class="st38" d="M499.03,302.25c-4.04,5.99-10.89,9.93-18.66,9.93s-14.62-3.94-18.66-9.93"/>
        <path class="st0" d="M461.43,301.82c-.09-.14-.18-.28-.27-.42"/>
      </g>
      <g>
        <path class="st49" d="M504.16,303.47c-.08.14-.17.29-.26.43"/>
        <path class="st61" d="M503.37,304.76c-4.91,7.48-13.37,12.42-22.99,12.42s-18.09-4.94-23-12.43"/>
        <path class="st49" d="M457.1,304.33c-.09-.14-.18-.28-.26-.43"/>
      </g>
    </g>
    <g>
      <g>
        <path class="st0" d="M475.11,292.67c-.09.14-.19.28-.29.41"/>
        <path class="st53" d="M474.06,293.87c-.96.82-2.2,1.31-3.56,1.31-1.56,0-2.96-.65-3.96-1.69"/>
        <path class="st0" d="M466.18,293.07c-.1-.13-.2-.27-.29-.41"/>
      </g>
      <g>
        <path class="st23" d="M479.44,295.17c-.09.14-.18.28-.27.42"/>
        <path class="st20" d="M478.58,296.36c-1.92,2.33-4.83,3.81-8.08,3.81-3.43,0-6.47-1.65-8.38-4.19"/>
        <path class="st23" d="M461.83,295.59c-.09-.14-.18-.28-.27-.42"/>
      </g>
      <g>
        <path class="st0" d="M483.76,297.67c-.09.14-.17.28-.27.42"/>
        <path class="st65" d="M482.93,298.91c-2.82,3.8-7.33,6.27-12.43,6.27s-9.92-2.64-12.72-6.67"/>
        <path class="st0" d="M457.5,298.09c-.09-.14-.18-.28-.27-.42"/>
      </g>
      <g>
        <path class="st49" d="M488.09,300.17c-.09.14-.17.29-.26.43"/>
        <path class="st36" d="M487.27,301.44c-3.71,5.28-9.83,8.74-16.77,8.74s-13.38-3.64-17.05-9.16"/>
        <path class="st49" d="M453.17,300.6c-.09-.14-.18-.28-.26-.43"/>
      </g>
    </g>
    <g>
      <g>
        <path class="st0" d="M463.38,291.45c-.09.14-.18.28-.28.41"/>
        <path class="st41" d="M461.2,293.08c-.26.06-.54.1-.82.1-.51,0-.99-.11-1.43-.31"/>
        <path class="st0" d="M458,292.23c-.12-.11-.23-.24-.34-.37"/>
      </g>
      <g>
        <path class="st49" d="M467.71,293.95c-.08.14-.17.29-.26.42"/>
        <path class="st37" d="M466.22,295.84c-1.52,1.45-3.58,2.34-5.85,2.34-2.43,0-4.63-1.02-6.17-2.66"/>
        <path class="st49" d="M453.59,294.79c-.1-.13-.2-.27-.29-.41"/>
      </g>
    </g>
  </g>
  <g id="spare_fans" class="st75">
    <g>
      <path class="st0" d="M1160.77,290.4l-.69-.4-.69.4c.18.17.42.28.69.28s.51-.11.69-.28Z"/>
      <path class="st0" d="M1160.08,295.68c2.12,0,3.98-1.1,5.05-2.76l-5.05-2.92-5.05,2.92c1.07,1.66,2.93,2.76,5.05,2.76Z"/>
      <path class="st0" d="M1160.08,300.68c3.97,0,7.44-2.11,9.37-5.26l-9.37-5.42-9.37,5.42c1.93,3.15,5.4,5.26,9.37,5.26Z"/>
      <path class="st0" d="M1160.08,305.68c5.82,0,10.89-3.12,13.7-7.76l-13.7-7.92-13.7,7.92c2.8,4.64,7.88,7.76,13.7,7.76Z"/>
      <path class="st0" d="M1160.08,310.68c7.67,0,14.35-4.12,18.02-10.26l-18.02-10.42-18.02,10.42c3.67,6.14,10.35,10.26,18.02,10.26Z"/>
      <path class="st0" d="M1160.08,315.68c9.52,0,17.83-5.12,22.37-12.74l-22.37-12.94-22.37,12.94c4.53,7.63,12.85,12.74,22.37,12.74Z"/>
      <path class="st0" d="M1160.08,320.68c11.37,0,21.3-6.12,26.69-15.24l-26.69-15.44-26.69,15.44c5.4,9.12,15.33,15.24,26.69,15.24Z"/>
      <path class="st0" d="M1160.08,325.68c13.21,0,24.76-7.12,31.02-17.74l-31.02-17.94-31.02,17.94c6.26,10.61,17.81,17.74,31.02,17.74Z"/>
      <path class="st0" d="M1160.08,330.68c15.06,0,28.22-8.13,35.35-20.23l-35.35-20.44-35.35,20.44c7.13,12.11,20.28,20.23,35.35,20.23Z"/>
      <path class="st0" d="M1160.08,335.68c16.91,0,31.68-9.13,39.68-22.73l-39.68-22.95-39.68,22.95c7.99,13.6,22.76,22.73,39.68,22.73Z"/>
      <text class="st76" transform="translate(1159.12 356.68)"><tspan x="0" y="0">2</tspan></text>
    </g>
    <g>
      <path class="st0" d="M1230.45,340.18c18.58,0,34.8-10.04,43.57-24.98l-43.57-25.2-43.57,25.2c8.77,14.94,24.99,24.98,43.57,24.98Z"/>
      <path class="st0" d="M1230.45,295.18c1.93,0,3.63-1,4.61-2.51l-4.61-2.67-4.61,2.67c.98,1.51,2.68,2.51,4.61,2.51Z"/>
      <path class="st0" d="M1230.45,300.18c3.78,0,7.09-2.01,8.94-5.01l-8.94-5.17-8.94,5.17c1.85,3,5.15,5.01,8.94,5.01Z"/>
      <path class="st0" d="M1230.45,305.18c5.63,0,10.55-3.01,13.26-7.51l-13.26-7.67-13.26,7.67c2.71,4.49,7.63,7.51,13.26,7.51Z"/>
      <path class="st0" d="M1230.45,310.18c7.48,0,14.01-4.02,17.59-10.01l-17.59-10.17-17.59,10.17c3.58,5.99,10.11,10.01,17.59,10.01Z"/>
      <path class="st0" d="M1230.45,315.18c9.33,0,17.49-5.01,21.93-12.49l-21.93-12.68-21.93,12.68c4.44,7.48,12.6,12.49,21.93,12.49Z"/>
      <path class="st0" d="M1230.45,320.18c11.18,0,20.95-6.02,26.26-14.99l-26.26-15.19-26.26,15.19c5.31,8.97,15.08,14.99,26.26,14.99Z"/>
      <path class="st0" d="M1230.45,325.18c13.03,0,24.41-7.02,30.59-17.49l-30.59-17.69-30.59,17.69c6.18,10.46,17.56,17.49,30.59,17.49Z"/>
      <path class="st0" d="M1230.45,330.18c14.88,0,27.88-8.03,34.92-19.99l-34.92-20.19-34.92,20.19c7.04,11.96,20.04,19.99,34.92,19.99Z"/>
      <path class="st0" d="M1230.45,335.18c16.73,0,31.34-9.03,39.24-22.48l-39.24-22.7-39.24,22.7c7.91,13.45,22.52,22.48,39.24,22.48Z"/>
      <text class="st76" transform="translate(1229.5 356.68)"><tspan x="0" y="0">1</tspan></text>
    </g>
    <g>
      <g>
        <path class="st0" d="M629.62,294.68c1.66,0,3.12-.82,4.03-2.06l-4.53-2.62-3.8,2.2c.87,1.48,2.46,2.48,4.3,2.48Z"/>
        <path class="st0" d="M629.62,299.68c3.51,0,6.59-1.81,8.38-4.55l-8.88-5.13-8.14,4.71c1.73,2.97,4.95,4.97,8.64,4.97Z"/>
        <path class="st0" d="M629.62,304.68c5.36,0,10.05-2.82,12.7-7.04l-13.2-7.63-12.46,7.21c2.6,4.46,7.42,7.47,12.96,7.47Z"/>
        <path class="st0" d="M629.62,309.68c7.21,0,13.51-3.83,17.02-9.54l-17.52-10.14-16.78,9.71c3.46,5.96,9.9,9.97,17.28,9.97Z"/>
        <path class="st0" d="M629.62,314.68c9.06,0,16.99-4.82,21.37-12.03l-21.87-12.65-21.12,12.22c4.33,7.45,12.39,12.46,21.62,12.46Z"/>
        <path class="st0" d="M629.62,319.68c10.91,0,20.45-5.82,25.7-14.52l-26.2-15.15-25.45,14.72c5.19,8.94,14.87,14.96,25.95,14.96Z"/>
        <path class="st0" d="M599.34,307.22c6.06,10.43,17.35,17.46,30.28,17.46s23.91-6.83,30.03-17.02l-30.53-17.66-29.78,17.22Z"/>
        <path class="st0" d="M629.12,290l-34.11,19.73c6.92,11.93,19.82,19.95,34.61,19.95s27.38-7.83,34.36-19.52l-34.86-20.16Z"/>
        <path class="st0" d="M668.31,312.66l-39.19-22.66-38.44,22.23c7.79,13.42,22.3,22.45,38.94,22.45s30.84-8.83,38.69-22.02Z"/>
        <path class="st0" d="M672.64,315.17l-43.51-25.17-42.76,24.73c8.65,14.91,24.78,24.95,43.26,24.95s34.3-9.84,43.01-24.51Z"/>
      </g>
      <text class="st76" transform="translate(620.5 354.68)"><tspan x="0" y="0">10</tspan></text>
    </g>
    <g>
      <path class="st0" d="M706.5,294.18c1.47,0,2.77-.72,3.59-1.81l-4.09-2.37-3.37,1.95c.78,1.33,2.21,2.23,3.87,2.23Z"/>
      <path class="st0" d="M706.5,299.18c3.32,0,6.25-1.71,7.94-4.3l-8.44-4.88-7.7,4.45c1.65,2.82,4.7,4.72,8.2,4.72Z"/>
      <path class="st0" d="M706.5,304.18c5.17,0,9.7-2.72,12.27-6.79l-12.77-7.38-12.03,6.96c2.51,4.31,7.18,7.22,12.53,7.22Z"/>
      <path class="st0" d="M706.5,309.18c7.02,0,13.16-3.72,16.59-9.29l-17.09-9.89-16.35,9.46c3.38,5.81,9.65,9.72,16.85,9.72Z"/>
      <path class="st0" d="M706.5,314.18c8.87,0,16.64-4.72,20.94-11.78l-21.44-12.4-20.69,11.97c4.24,7.3,12.14,12.21,21.19,12.21Z"/>
      <path class="st0" d="M706.5,319.18c10.72,0,20.11-5.72,25.27-14.27l-25.77-14.9-25.02,14.47c5.11,8.79,14.62,14.71,25.52,14.71Z"/>
      <path class="st0" d="M706.5,324.18c12.57,0,23.57-6.73,29.6-16.77l-30.1-17.41-29.35,16.97c5.97,10.28,17.1,17.21,29.85,17.21Z"/>
      <path class="st0" d="M706.5,329.18c14.42,0,27.03-7.73,33.93-19.27l-34.43-19.91-33.68,19.48c6.84,11.78,19.58,19.7,34.18,19.7Z"/>
      <path class="st0" d="M706.5,334.18c16.27,0,30.49-8.73,38.25-21.77l-38.75-22.41-38,21.98c7.7,13.27,22.06,22.2,38.5,22.2Z"/>
      <path class="st0" d="M706.5,339.18c18.12,0,33.95-9.74,42.58-24.26l-43.08-24.92-42.33,24.48c8.57,14.76,24.53,24.7,42.83,24.7Z"/>
      <text class="st76" transform="translate(702.5 352.68)"><tspan x="0" y="0">9</tspan></text>
    </g>
    <g>
      <path class="st0" d="M779.5,293.68c1.29,0,2.42-.62,3.15-1.57l-3.65-2.11-2.94,1.7c.7,1.18,1.97,1.98,3.44,1.98Z"/>
      <path class="st0" d="M779.5,298.68c3.14,0,5.9-1.61,7.51-4.05l-8.01-4.63-7.27,4.2c1.56,2.67,4.45,4.47,7.77,4.47Z"/>
      <path class="st0" d="M779.5,303.68c4.99,0,9.36-2.62,11.84-6.54l-12.34-7.13-11.6,6.71c2.43,4.17,6.93,6.97,12.1,6.97Z"/>
      <path class="st0" d="M779.5,308.68c6.84,0,12.81-3.62,16.16-9.04l-16.66-9.64-15.92,9.21c3.29,5.66,9.4,9.47,16.42,9.47Z"/>
      <path class="st0" d="M779.5,313.68c8.69,0,16.3-4.62,20.51-11.53l-21.01-12.15-20.26,11.72c4.16,7.15,11.89,11.96,20.76,11.96Z"/>
      <path class="st0" d="M779.5,318.68c10.54,0,19.76-5.62,24.84-14.02l-25.34-14.65-24.59,14.22c5.02,8.64,14.37,14.46,25.09,14.46Z"/>
      <path class="st0" d="M779.5,323.68c12.39,0,23.22-6.62,29.17-16.52l-29.67-17.16-28.91,16.72c5.89,10.14,16.85,16.96,29.41,16.96Z"/>
      <path class="st0" d="M779.5,328.68c14.23,0,26.68-7.63,33.49-19.02l-33.99-19.66-33.24,19.23c6.75,11.63,19.33,19.45,33.74,19.45Z"/>
      <path class="st0" d="M779.5,333.68c16.08,0,30.15-8.63,37.82-21.52l-38.32-22.16-37.57,21.73c7.62,13.12,21.81,21.95,38.07,21.95Z"/>
      <path class="st0" d="M779.5,338.68c17.93,0,33.61-9.64,42.15-24.01l-42.65-24.67-41.9,24.23c8.48,14.61,24.29,24.45,42.4,24.45Z"/>
      <text class="st76" transform="translate(776.5 352.68)"><tspan x="0" y="0">8</tspan></text>
    </g>
    <g>
      <path class="st0" d="M850.5,293.18c1.1,0,2.08-.52,2.72-1.32l-3.22-1.86-2.5,1.45c.61,1.03,1.72,1.73,3,1.73Z"/>
      <path class="st0" d="M850.5,298.18c2.95,0,5.55-1.51,7.08-3.8l-7.58-4.38-6.84,3.95c1.47,2.52,4.2,4.22,7.34,4.22Z"/>
      <path class="st0" d="M850.5,303.18c4.8,0,9.01-2.52,11.4-6.29l-11.9-6.88-11.16,6.46c2.34,4.02,6.68,6.72,11.66,6.72Z"/>
      <path class="st0" d="M850.5,308.18c6.65,0,12.47-3.52,15.73-8.79l-16.23-9.39-15.49,8.96c3.2,5.51,9.16,9.22,15.99,9.22Z"/>
      <path class="st0" d="M850.5,313.18c8.5,0,15.95-4.52,20.08-11.28l-20.58-11.9-19.83,11.47c4.07,7,11.65,11.71,20.33,11.71Z"/>
      <path class="st0" d="M850.5,318.18c10.35,0,19.41-5.52,24.4-13.78l-24.9-14.4-24.15,13.97c4.93,8.49,14.12,14.21,24.65,14.21Z"/>
      <path class="st0" d="M850.5,323.18c12.2,0,22.87-6.52,28.73-16.27l-29.23-16.91-28.48,16.47c5.8,9.99,16.6,16.71,28.98,16.71Z"/>
      <path class="st0" d="M850.5,328.18c14.05,0,26.34-7.53,33.06-18.77l-33.56-19.41-32.81,18.98c6.66,11.48,19.08,19.2,33.31,19.2Z"/>
      <path class="st0" d="M850.5,333.18c15.9,0,29.8-8.53,37.39-21.27l-37.89-21.91-37.14,21.48c7.53,12.97,21.56,21.7,37.64,21.7Z"/>
      <path class="st0" d="M850.5,338.18c17.75,0,33.26-9.54,41.72-23.76l-42.22-24.42-41.47,23.98c8.39,14.46,24.04,24.2,41.97,24.2Z"/>
      <text class="st76" transform="translate(847.5 354.68)"><tspan x="0" y="0">7</tspan></text>
    </g>
    <g>
      <path class="st0" d="M903.5,292.68c.92,0,1.73-.42,2.28-1.07l-2.78-1.61-2.07,1.2c.52.88,1.47,1.48,2.57,1.48Z"/>
      <path class="st0" d="M903.5,297.68c2.77,0,5.21-1.41,6.65-3.55l-7.15-4.13-6.41,3.7c1.39,2.37,3.96,3.97,6.91,3.97Z"/>
      <path class="st0" d="M903.5,302.68c4.62,0,8.66-2.42,10.97-6.05l-11.47-6.63-10.73,6.21c2.25,3.87,6.43,6.47,11.23,6.47Z"/>
      <path class="st0" d="M903.5,307.68c6.47,0,12.12-3.42,15.3-8.54l-15.8-9.14-15.06,8.71c3.12,5.36,8.91,8.97,15.56,8.97Z"/>
      <path class="st0" d="M903.5,312.68c8.32,0,15.6-4.42,19.64-11.03l-20.14-11.65-19.39,11.22c3.98,6.85,11.4,11.46,19.89,11.46Z"/>
      <path class="st0" d="M903.5,317.68c10.17,0,19.07-5.42,23.97-13.53l-24.47-14.15-23.72,13.72c4.85,8.34,13.88,13.96,24.22,13.96Z"/>
      <path class="st0" d="M903.5,322.68c12.02,0,22.53-6.42,28.3-16.02l-28.8-16.66-28.05,16.22c5.71,9.84,16.35,16.46,28.55,16.46Z"/>
      <path class="st0" d="M903.5,327.68c13.86,0,25.99-7.43,32.63-18.52l-33.13-19.16-32.38,18.73c6.58,11.33,18.83,18.95,32.88,18.95Z"/>
      <path class="st0" d="M903.5,332.68c15.71,0,29.45-8.43,36.96-21.02l-37.46-21.66-36.7,21.23c7.44,12.82,21.31,21.45,37.2,21.45Z"/>
      <path class="st0" d="M903.5,337.68c17.56,0,32.92-9.44,41.28-23.51l-41.78-24.17-41.03,23.73c8.31,14.31,23.79,23.95,41.53,23.95Z"/>
      <text class="st76" transform="translate(905.5 351.68)"><tspan x="0" y="0">6</tspan></text>
    </g>
    <g>
      <path class="st0" d="M980.5,292.18c.73,0,1.39-.32,1.84-.82l-2.34-1.36-1.64.95c.44.73,1.23,1.23,2.14,1.23Z"/>
      <path class="st0" d="M980.5,297.18c2.58,0,4.86-1.31,6.21-3.3l-6.71-3.88-5.97,3.45c1.3,2.23,3.71,3.72,6.47,3.72Z"/>
      <path class="st0" d="M980.5,302.18c4.43,0,8.32-2.31,10.54-5.8l-11.04-6.38-10.3,5.96c2.17,3.72,6.18,6.22,10.8,6.22Z"/>
      <path class="st0" d="M980.5,307.18c6.28,0,11.78-3.32,14.86-8.29l-15.36-8.89-14.62,8.46c3.03,5.21,8.66,8.72,15.12,8.72Z"/>
      <path class="st0" d="M980.5,312.18c8.13,0,15.26-4.32,19.21-10.78l-19.71-11.4-18.96,10.97c3.9,6.7,11.15,11.21,19.46,11.21Z"/>
      <path class="st0" d="M980.5,317.18c9.98,0,18.72-5.32,23.54-13.28l-24.04-13.9-23.29,13.47c4.76,8.2,13.63,13.71,23.79,13.71Z"/>
      <path class="st0" d="M980.5,322.18c11.83,0,22.18-6.32,27.87-15.77l-28.37-16.41-27.62,15.97c5.63,9.69,16.11,16.21,28.12,16.21Z"/>
      <path class="st0" d="M980.5,327.18c13.68,0,25.64-7.33,32.19-18.27l-32.69-18.91-31.94,18.48c6.49,11.18,18.59,18.7,32.44,18.7Z"/>
      <path class="st0" d="M980.5,332.18c15.53,0,29.11-8.33,36.52-20.77l-37.02-21.41-36.27,20.98c7.36,12.67,21.06,21.2,36.77,21.2Z"/>
      <path class="st0" d="M980.5,337.18c17.38,0,32.57-9.34,40.85-23.26l-41.35-23.92-40.6,23.48c8.22,14.16,23.54,23.7,41.1,23.7Z"/>
      <text class="st76" transform="translate(978.5 352.68)"><tspan x="0" y="0">5</tspan></text>
    </g>
    <g>
      <path class="st0" d="M1044.45,291.68c.64,0,1.2-.31,1.57-.77l-1.57-.91-1.57.91c.37.47.93.77,1.57.77Z"/>
      <path class="st0" d="M1044.45,296.68c2.49,0,4.67-1.3,5.91-3.26l-5.91-3.42-5.91,3.42c1.24,1.96,3.42,3.26,5.91,3.26Z"/>
      <path class="st0" d="M1044.45,301.68c4.34,0,8.13-2.31,10.24-5.76l-10.24-5.92-10.24,5.92c2.11,3.45,5.9,5.76,10.24,5.76Z"/>
      <path class="st0" d="M1044.45,306.68c6.19,0,11.59-3.32,14.56-8.26l-14.56-8.42-14.56,8.42c2.97,4.94,8.37,8.26,14.56,8.26Z"/>
      <path class="st0" d="M1044.45,311.68c8.04,0,15.06-4.31,18.9-10.75l-18.9-10.93-18.9,10.93c3.84,6.43,10.87,10.75,18.9,10.75Z"/>
      <path class="st0" d="M1044.45,316.68c9.89,0,18.53-5.32,23.23-13.24l-23.23-13.44-23.23,13.44c4.7,7.93,13.34,13.24,23.23,13.24Z"/>
      <path class="st0" d="M1044.45,321.68c11.74,0,21.99-6.32,27.56-15.74l-27.56-15.94-27.56,15.94c5.57,9.42,15.82,15.74,27.56,15.74Z"/>
      <path class="st0" d="M1044.45,326.68c13.58,0,25.45-7.33,31.89-18.24l-31.89-18.44-31.89,18.44c6.43,10.91,18.3,18.24,31.89,18.24Z"/>
      <path class="st0" d="M1044.45,331.68c15.43,0,28.91-8.33,36.21-20.73l-36.21-20.94-36.21,20.94c7.3,12.4,20.78,20.73,36.21,20.73Z"/>
      <path class="st0" d="M1044.45,336.68c17.28,0,32.38-9.33,40.54-23.23l-40.54-23.45-40.54,23.45c8.16,13.9,23.26,23.23,40.54,23.23Z"/>
      <text class="st76" transform="translate(1038.5 349.68)"><tspan x="0" y="0">4</tspan></text>
    </g>
    <g>
      <path class="st0" d="M1101.45,291.18c.45,0,.86-.21,1.13-.52l-1.13-.65-1.13.65c.28.32.68.52,1.13.52Z"/>
      <path class="st0" d="M1101.45,296.18c2.3,0,4.32-1.2,5.48-3.01l-5.48-3.17-5.48,3.17c1.15,1.81,3.17,3.01,5.48,3.01Z"/>
      <path class="st0" d="M1101.45,301.18c4.15,0,7.78-2.21,9.8-5.51l-9.8-5.67-9.8,5.67c2.02,3.3,5.65,5.51,9.8,5.51Z"/>
      <path class="st0" d="M1101.45,306.18c6,0,11.24-3.22,14.13-8.01l-14.13-8.17-14.13,8.17c2.89,4.79,8.13,8.01,14.13,8.01Z"/>
      <path class="st0" d="M1101.45,311.18c7.85,0,14.7-4.22,18.45-10.51l-18.45-10.67-18.45,10.67c3.75,6.28,10.6,10.51,18.45,10.51Z"/>
      <path class="st0" d="M1101.45,316.18c9.7,0,18.18-5.22,22.8-12.99l-22.8-13.19-22.8,13.19c4.62,7.78,13.1,12.99,22.8,12.99Z"/>
      <path class="st0" d="M1101.45,321.18c11.55,0,21.64-6.22,27.13-15.49l-27.13-15.69-27.13,15.69c5.48,9.27,15.58,15.49,27.13,15.49Z"/>
      <path class="st0" d="M1101.45,326.18c13.4,0,25.11-7.23,31.45-17.99l-31.45-18.19-31.45,18.19c6.35,10.76,18.05,17.99,31.45,17.99Z"/>
      <path class="st0" d="M1101.45,331.18c15.25,0,28.57-8.23,35.78-20.48l-35.78-20.69-35.78,20.69c7.21,12.25,20.53,20.48,35.78,20.48Z"/>
      <path class="st0" d="M1101.45,336.18c17.1,0,32.03-9.23,40.11-22.98l-40.11-23.2-40.11,23.2c8.08,13.75,23.01,22.98,40.11,22.98Z"/>
      <text class="st76" transform="translate(1097.5 350.68)"><tspan x="0" y="0">3</tspan></text>
    </g>
  </g>
  <g id="arrows">
    <g class="st78">
      <g>
        <line class="st69" x1="200.04" y1="273" x2="200.04" y2="309.03"/>
        <polygon points="193.81 307.21 200.04 318 206.27 307.21 193.81 307.21"/>
      </g>
    </g>
    <g class="st78">
      <g>
        <line class="st69" x1="192.96" y1="270.1" x2="167.48" y2="295.58"/>
        <polygon points="164.36 289.88 161.14 301.92 173.18 298.69 164.36 289.88"/>
      </g>
    </g>
    <g class="st78">
      <g>
        <line class="st69" x1="190" y1="263.04" x2="153.97" y2="263.04"/>
        <polygon points="155.79 256.81 145 263.04 155.79 269.27 155.79 256.81"/>
      </g>
    </g>
    <g class="st78">
      <g>
        <line class="st69" x1="192.9" y1="255.96" x2="167.42" y2="230.48"/>
        <polygon points="173.12 227.36 161.08 224.14 164.31 236.18 173.12 227.36"/>
      </g>
    </g>
    <g class="st78">
      <g>
        <line class="st69" x1="199.96" y1="253" x2="199.96" y2="216.97"/>
        <polygon points="206.19 218.79 199.96 208 193.73 218.79 206.19 218.79"/>
      </g>
    </g>
    <g class="st78">
      <g>
        <line class="st69" x1="207.04" y1="255.9" x2="232.52" y2="230.42"/>
        <polygon points="235.64 236.12 238.86 224.08 226.82 227.31 235.64 236.12"/>
      </g>
    </g>
    <g class="st78">
      <g>
        <line class="st69" x1="210" y1="262.96" x2="246.03" y2="262.96"/>
        <polygon points="244.21 269.19 255 262.96 244.21 256.73 244.21 269.19"/>
      </g>
    </g>
    <g class="st78">
      <g>
        <line class="st69" x1="207.1" y1="270.04" x2="232.58" y2="295.52"/>
        <polygon points="226.88 298.64 238.92 301.86 235.69 289.82 226.88 298.64"/>
      </g>
    </g>
  </g>
</svg>