<?xml version="1.0" encoding="UTF-8"?>
<svg id="Layer_1" xmlns="http://www.w3.org/2000/svg" version="1.1" viewBox="0 0 1615.75 1052.79">
  <!-- Generator: Adobe Illustrator 29.5.0, SVG Export Plug-In . SVG Version: 2.1.0 Build 137)  -->
  <defs>
    <style>
      .st0 {
        fill: #fff;
        stroke-width: 6.75px;
      }

      .st0, .st1, .st2, .st3, .st4, .st5, .st6, .st7 {
        stroke-miterlimit: 10;
      }

      .st0, .st3, .st4, .st7 {
        stroke: #000;
      }

      .st1 {
        stroke: #009245;
        stroke-dasharray: 12;
      }

      .st1, .st2, .st3, .st4, .st5, .st6 {
        fill: none;
      }

      .st1, .st2, .st5 {
        stroke-width: 6px;
      }

      .st2 {
        stroke-dasharray: 11.87 11.87;
      }

      .st2, .st5 {
        stroke: blue;
      }

      .st3 {
        stroke-width: 15px;
      }

      .st8 {
        fill: blue;
      }

      .st4 {
        stroke-width: 2.25px;
      }

      .st6 {
        stroke: #666;
        stroke-width: 12px;
      }

      .st7 {
        fill: #ccc;
        stroke-width: 5px;
      }
    </style>
  </defs>
  <g>
    <rect class="st7" x="451.74" y="894.67" width="30.54" height="30.54" transform="translate(-442.93 1376.95) rotate(-90)"/>
    <polygon class="st7" points="482.17 897.32 469.56 909.94 482.17 922.56 482.17 897.32"/>
  </g>
  <line class="st1" x1="486.87" y1="902.49" x2="678.87" y2="825.99"/>
  <circle class="st8" cx="199.75" cy="732.37" r="21.26"/>
  <polyline class="st3" points="1488.87 533.49 660.87 938.49 144.87 938.49"/>
  <g>
    <line class="st5" x1="669.12" y1="817.74" x2="663.21" y2="816.71"/>
    <line class="st2" x1="651.52" y1="814.66" x2="236.33" y2="741.87"/>
    <line class="st5" x1="230.48" y1="740.85" x2="224.57" y2="739.81"/>
  </g>
  <g>
    <rect class="st7" x="474.24" y="261.67" width="30.54" height="30.54" transform="translate(41.98 617.58) rotate(-66.78)"/>
    <polygon class="st7" points="508.42 271.33 491.85 277.94 498.47 294.52 508.42 271.33"/>
  </g>
  <g>
    <line class="st6" x1="548.53" y1="259.15" x2="575.22" y2="365.34"/>
    <line class="st6" x1="508.77" y1="325.59" x2="614.97" y2="298.9"/>
  </g>
  <g>
    <path class="st0" d="M672.2,824.49c0,19.39,10.88,24.3,24.3,24.3s21.52-7.54,24.3-27c2.7-18.9-10.88-35.1-24.3-35.1-9.22,0-17.25,7.42-21.36,18.36-.94,2.49-7.84,13.94-8.34,16.74-.5,2.81,5.4-.33,5.4,2.7Z"/>
    <path class="st4" d="M699.95,808.04c.3,1.19,4.88,5.17.95,11.02"/>
  </g>
</svg>