<?xml version="1.0" encoding="UTF-8"?>
<svg id="Layer_1" xmlns="http://www.w3.org/2000/svg" version="1.1" viewBox="0 0 1615.75 1052.79">
  <!-- Generator: Adobe Illustrator 29.5.0, SVG Export Plug-In . SVG Version: 2.1.0 Build 137)  -->
  <defs>
    <style>
      .st0 {
        stroke-width: 15px;
      }

      .st0, .st1, .st2, .st3, .st4, .st5, .st6 {
        stroke-miterlimit: 10;
      }

      .st0, .st1, .st2, .st3, .st4, .st6 {
        fill: none;
      }

      .st0, .st1, .st5 {
        stroke: #000;
      }

      .st7 {
        fill: #fff;
      }

      .st8 {
        fill: blue;
      }

      .st1 {
        stroke-width: 2.25px;
      }

      .st2 {
        stroke: red;
        stroke-dasharray: 12;
      }

      .st2, .st3, .st6 {
        stroke-width: 6px;
      }

      .st3, .st6 {
        stroke: blue;
      }

      .st4 {
        stroke: #666;
        stroke-width: 12px;
      }

      .st5 {
        fill: #ccc;
        stroke-width: 5px;
      }

      .st6 {
        stroke-dasharray: 11.94 11.94;
      }
    </style>
  </defs>
  <g>
    <rect class="st5" x="451.74" y="894.67" width="30.54" height="30.54" transform="translate(-442.93 1376.95) rotate(-90)"/>
    <polygon class="st5" points="482.17 897.32 469.56 909.94 482.17 922.56 482.17 897.32"/>
  </g>
  <g>
    <g>
      <path class="st7" d="M1364,515.42c-14.67,0-20.92-6.26-20.92-20.92,0-.45-.13-4.15-4.33-4.75,1.09-2.22,2.72-5.21,3.77-7.13,1.81-3.31,2.85-5.25,3.28-6.38,3.75-9.97,10.73-16.17,18.2-16.17,4.9,0,10.05,2.7,14.13,7.4,5.58,6.44,8.07,15.13,6.83,23.84-3.03,21.24-12.3,24.1-20.96,24.1Z"/>
      <path d="M1364,463.44c3.86,0,8.19,2.33,11.58,6.24,4.87,5.62,7.13,13.52,6.04,21.16-1.15,8.07-3.31,13.83-6.4,17.13-1.64,1.75-4.59,4.07-11.22,4.07-12.79,0-17.55-4.76-17.55-17.55,0-2.34-.98-4.79-3.05-6.4.75-1.41,1.51-2.81,2.09-3.87,1.93-3.54,2.96-5.46,3.47-6.8,3.25-8.63,9.01-13.98,15.04-13.98M1364,456.69c-9.22,0-17.25,7.42-21.36,18.36-.94,2.49-7.84,13.94-8.34,16.74-.2,1.11.6,1.29,1.65,1.29.5,0,1.06-.04,1.59-.04,1.15,0,2.16.2,2.16,1.45,0,19.39,10.88,24.3,24.3,24.3s21.52-7.54,24.3-27c2.7-18.9-10.88-35.1-24.3-35.1h0Z"/>
    </g>
    <path class="st1" d="M1368.4,489.06c3.92-5.85-.65-9.84-.95-11.02"/>
  </g>
  <line class="st2" x1="504.87" y1="284.49" x2="1346.37" y2="480.99"/>
  <circle class="st8" cx="199.75" cy="732.37" r="21.26"/>
  <polyline class="st0" points="1488.87 533.49 660.87 938.49 144.87 938.49"/>
  <g>
    <line class="st3" x1="1322.37" y1="491.49" x2="1316.5" y2="492.74"/>
    <line class="st6" x1="1304.83" y1="495.22" x2="236.23" y2="722.19"/>
    <line class="st3" x1="230.39" y1="723.43" x2="224.52" y2="724.68"/>
  </g>
  <g>
    <rect class="st5" x="474.24" y="261.67" width="30.54" height="30.54" transform="translate(41.98 617.58) rotate(-66.78)"/>
    <polygon class="st5" points="508.42 271.33 491.85 277.94 498.47 294.52 508.42 271.33"/>
  </g>
  <g>
    <line class="st4" x1="579.91" y1="833.13" x2="525.84" y2="928.35"/>
    <line class="st4" x1="505.26" y1="853.71" x2="600.48" y2="907.78"/>
  </g>
</svg>